<svg width="24" height="24" viewBox="0 0 24 24" fill="none" xmlns="http://www.w3.org/2000/svg">
<path d="M12 17L11.2929 17.7071L12 18.4142L12.7071 17.7071L12 17ZM23.7071 6.70711C24.0976 6.31658 24.0976 5.68342 23.7071 5.29289C23.3166 4.90237 22.6834 4.90237 22.2929 5.29289L23.7071 6.70711ZM5 17L4.29289 17.7071L5 18.4142L5.70711 17.7071L5 17ZM16.7071 6.70711C17.0976 6.31658 17.0976 5.68342 16.7071 5.29289C16.3166 4.90237 15.6834 4.90237 15.2929 5.29289L16.7071 6.70711ZM1.70711 12.2929C1.31658 11.9024 0.683418 11.9024 0.292893 12.2929C-0.0976311 12.6834 -0.0976311 13.3166 0.292893 13.7071L1.70711 12.2929ZM12.7071 17.7071L23.7071 6.70711L22.2929 5.29289L11.2929 16.2929L12.7071 17.7071ZM9.29289 15.7071L11.2929 17.7071L12.7071 16.2929L10.7071 14.2929L9.29289 15.7071ZM5.70711 17.7071L16.7071 6.70711L15.2929 5.29289L4.29289 16.2929L5.70711 17.7071ZM0.292893 13.7071L4.29289 17.7071L5.70711 16.2929L1.70711 12.2929L0.292893 13.7071Z" fill="hsl(96, 16%, 64%)"/>
</svg>
