<svg width="698" height="468" viewBox="0 0 698 468" fill="none" xmlns="http://www.w3.org/2000/svg">
<path d="M562.164 91.4336H275.234C248.405 91.4336 226.656 113.199 226.656 140.048V323.454C226.656 350.303 248.405 372.069 275.234 372.069H562.164C588.993 372.069 610.741 350.303 610.741 323.454V140.048C610.741 113.199 588.993 91.4336 562.164 91.4336Z" fill="black"/>
<path d="M610.681 128.085C609.598 99.2443 585.901 76.1982 556.819 76.1982H280.568C251.487 76.1982 227.79 99.2443 226.707 128.085H226.656V302.88C226.656 332.683 250.798 356.833 280.568 356.833H556.819C586.599 356.833 610.731 332.673 610.731 302.88V128.085H610.681Z" fill="#E3FCF7" stroke="black" stroke-miterlimit="10"/>
<mask id="mask0_3728_11474" style="mask-type:luminance" maskUnits="userSpaceOnUse" x="226" y="76" width="385" height="281">
<path d="M610.681 128.085C609.598 99.2443 585.901 76.1982 556.819 76.1982H280.568C251.487 76.1982 227.79 99.2443 226.707 128.085H226.656V302.88C226.656 332.683 250.798 356.833 280.568 356.833H556.819C586.599 356.833 610.731 332.673 610.731 302.88V128.085H610.681Z" fill="white"/>
</mask>
<g mask="url(#mask0_3728_11474)">
<path d="M437.497 171.31H399.893V356.833H437.497V171.31Z" fill="#006CF8" stroke="black" stroke-miterlimit="10"/>
<path d="M505.49 223.854H467.885V356.833H505.49V223.854Z" fill="#006CF8" stroke="black" stroke-miterlimit="10"/>
<path d="M573.472 192.653H535.867V356.842H573.472V192.653Z" fill="#006CF8" stroke="black" stroke-miterlimit="10"/>
<path d="M369.515 264.416H331.91V356.833H369.515V264.416Z" fill="#006CF8" stroke="black" stroke-miterlimit="10"/>
<path d="M301.533 127.233H263.928V356.833H301.533V127.233Z" fill="#006CF8" stroke="black" stroke-miterlimit="10"/>
</g>
<mask id="mask1_3728_11474" style="mask-type:luminance" maskUnits="userSpaceOnUse" x="226" y="76" width="385" height="281">
<path d="M610.681 128.085C609.598 99.2443 585.901 76.1982 556.819 76.1982H280.568C251.487 76.1982 227.79 99.2443 226.707 128.085H226.656V302.88C226.656 332.683 250.798 356.833 280.568 356.833H556.819C586.599 356.833 610.731 332.673 610.731 302.88V128.085H610.681Z" fill="white"/>
</mask>
<g mask="url(#mask1_3728_11474)">
<path d="M606.936 170.277L596.115 193.516L625.46 192.695L637.111 169.437L606.936 170.277Z" fill="black"/>
<path d="M637.111 169.376L624.185 146.806L594.85 147.616L584.363 170.905L596.115 193.516L606.926 170.216L637.111 169.376Z" fill="black"/>
</g>
<path d="M656.494 268.64V308.441" stroke="black" stroke-miterlimit="10"/>
<path d="M656.494 150.715V246.06" stroke="black" stroke-miterlimit="10"/>
<path d="M640.662 189.625V324.285C640.662 367.348 605.649 402.388 562.618 402.388H498.148" stroke="black" stroke-miterlimit="10"/>
<path d="M562.86 70.3232L550.592 94.7976L519.729 95.6486L531.106 71.2046L562.86 70.3232Z" fill="black" stroke="black" stroke-linejoin="round"/>
<path d="M562.86 70.262L549.256 46.5068L518.393 47.3578L531.106 71.1433L562.86 70.262Z" fill="white" stroke="black" stroke-linejoin="round"/>
<path d="M507.359 71.8622L519.729 95.6477L531.107 71.143L518.393 47.3574L507.359 71.8622Z" fill="white" stroke="black" stroke-linejoin="round"/>
<path d="M258.795 368.675C295.458 378.056 295.873 392.947 259.21 402.317C222.546 411.688 163.158 411.698 126.08 402.317C89.4466 392.947 89.0316 378.056 125.665 368.675C162.318 359.528 221.716 359.528 258.795 368.675Z" fill="black"/>
<path d="M122.313 239.921C122.313 239.921 71.1646 257.922 72.1971 332.085C73.2296 406.247 131.008 401.78 173.664 401.78C216.32 401.78 267.064 400.19 267.418 332.085C267.762 263.869 233.943 247.873 227.03 239.921" fill="#00ED64"/>
<path d="M122.313 239.921C122.313 239.921 71.1646 257.922 72.1971 332.085C73.2296 406.247 131.008 401.78 173.664 401.78C216.32 401.78 267.064 400.19 267.418 332.085C267.762 263.869 233.943 247.873 227.03 239.921" stroke="black" stroke-miterlimit="10"/>
<path d="M176.114 285.81C187.006 287.157 194.01 294.187 195.114 305.097C195.215 306.283 194.324 307.326 193.14 307.427C193.069 307.427 192.998 307.427 192.927 307.427H192.593C191.46 307.407 190.518 306.536 190.417 305.401C189.314 295.545 182.997 289.892 171.883 289.892C160.768 289.892 153.511 295.565 153.511 305.077C153.511 317.152 165.253 319.503 173.158 321.285C184.141 323.848 196.754 327.485 196.754 342.549C196.754 354.826 188.463 361.705 176.134 363.011C175.011 363.113 174.14 364.055 174.12 365.189V371.673C174.12 372.878 173.138 373.851 171.933 373.861C170.719 373.861 169.737 372.888 169.737 371.673V365.179C169.737 364.055 168.876 363.113 167.753 363.001C154.989 361.532 146.931 353.185 145.929 341.688C145.807 340.462 146.708 339.368 147.933 339.256C147.994 339.256 148.055 339.256 148.115 339.246H148.439C149.614 339.297 150.545 340.239 150.585 341.404C151.506 351.737 159.361 358.959 172.48 358.959C184.435 358.959 192.026 352.972 192.026 342.751C192.026 331.213 182.42 328.539 173.027 326.3C160.961 323.413 148.733 320.1 148.733 305.361C148.733 294.289 155.485 287.461 167.692 285.901C168.795 285.779 169.636 284.847 169.646 283.743V277.138C169.646 275.923 170.638 274.95 171.842 274.95C173.047 274.95 174.019 275.933 174.029 277.138V283.652C174.049 284.807 174.96 285.749 176.104 285.81H176.114Z" fill="black" stroke="black" stroke-linecap="round" stroke-linejoin="round"/>
<path d="M220.166 242.453C220.166 242.453 225.268 242.585 229.115 242.453C239.146 249.149 250.453 261.883 257.204 276.338C263.915 290.703 288.766 378.146 226.614 396.36C226.614 396.36 260.474 383.941 247.973 294.917C243.681 264.324 220.156 242.453 220.156 242.453H220.166Z" fill="black"/>
<path d="M120.369 236.416L110.49 211.252C109.69 209.226 111.674 207.2 113.709 207.97C118.76 209.895 121.847 214.16 137.821 214.16C155.15 214.16 154.846 205.488 173.289 205.549C191.53 205.62 190.417 214.514 206.714 214.717C219.974 214.879 225.025 210.158 229.783 208.041C231.676 207.2 233.7 208.882 233.245 210.898L227.121 237.662" fill="#00ED64"/>
<path d="M120.369 236.416L110.49 211.252C109.69 209.226 111.674 207.2 113.709 207.97C118.76 209.895 121.847 214.16 137.821 214.16C155.15 214.16 154.846 205.488 173.289 205.549C191.53 205.62 190.417 214.514 206.714 214.717C219.974 214.879 225.025 210.158 229.783 208.041C231.676 207.2 233.7 208.882 233.245 210.898L227.121 237.662" stroke="black" stroke-width="1.04" stroke-linecap="round" stroke-linejoin="round"/>
<path d="M227.576 236.111H119.002C117.342 236.111 115.996 237.458 115.996 239.12V239.454C115.996 241.116 117.342 242.463 119.002 242.463H227.576C229.236 242.463 230.582 241.116 230.582 239.454V239.12C230.582 237.458 229.236 236.111 227.576 236.111Z" fill="#B2FD34" stroke="black" stroke-width="1.04" stroke-linecap="round" stroke-linejoin="round"/>
<path d="M85.7206 282.265L74.6163 285.223C70.6888 286.266 67.6217 289.336 66.569 293.276L63.6132 304.389L60.6372 293.226C60.4044 292.324 60.0501 291.473 59.6149 290.683C58.4002 288.475 56.4769 286.732 54.1386 285.75C53.6629 285.547 53.1669 285.375 52.6608 285.243L41.5059 282.265L52.6405 279.297C55.6368 278.496 58.1269 276.511 59.6047 273.867C60.0501 273.057 60.4044 272.195 60.6474 271.274L63.6132 260.141L66.6095 271.385C67.1561 273.452 68.2797 275.275 69.7879 276.673C71.0937 277.889 72.693 278.79 74.4746 279.266L85.7206 282.265Z" fill="#006CFA" stroke="black" stroke-linecap="round" stroke-linejoin="round"/>
<path d="M259.199 390.556L248.044 393.534C244.096 394.587 241.019 397.667 239.966 401.618L236.99 412.781L234.004 401.567C233.771 400.665 233.417 399.804 232.972 399.014C231.747 396.796 229.813 395.043 227.465 394.061C226.989 393.858 226.493 393.686 225.977 393.554L214.771 390.566L225.957 387.577C228.963 386.777 231.473 384.781 232.951 382.127C233.407 381.317 233.761 380.446 234.004 379.524L236.99 368.33L239.997 379.625C240.543 381.702 241.677 383.525 243.195 384.933C244.511 386.159 246.121 387.061 247.902 387.537L259.199 390.556Z" fill="#006CFA" stroke="black" stroke-linecap="round" stroke-linejoin="round"/>
<path d="M320.135 369.222C333.76 377.397 333.912 390.363 320.287 398.528C306.662 406.693 284.585 406.693 270.809 398.528C257.194 390.363 257.042 377.397 270.657 369.222C284.282 361.259 306.359 361.259 320.135 369.222Z" fill="black"/>
<path d="M275.435 221.96L268.906 226.427C265.393 228.869 270.262 242.271 279.858 256.494C289.454 270.585 300.133 280.198 303.656 277.787L310.145 273.451L275.425 221.96H275.435Z" fill="#B2FD34" stroke="black" stroke-linecap="round" stroke-linejoin="round"/>
<path d="M286.376 252.026C295.972 266.117 306.662 275.731 310.174 273.32C313.687 270.919 308.828 257.476 299.222 243.254C289.626 229.163 278.947 219.59 275.424 221.96C271.77 224.401 276.78 237.925 286.366 252.026H286.376Z" fill="white" stroke="black" stroke-linecap="round" stroke-linejoin="round"/>
<path d="M288.818 250.395C295.711 260.556 303.151 267.465 305.59 265.844C307.888 264.223 304.234 254.741 297.341 244.55C290.447 234.359 283.007 227.511 280.578 229.142C278.28 230.763 281.924 240.245 288.818 250.406V250.395Z" fill="#B2FD34" stroke="black" stroke-linecap="round" stroke-linejoin="round"/>
<path d="M320.863 374.762V381.408C320.863 385.47 317.887 389.532 312.067 392.611C300.305 398.892 281.234 398.892 269.33 392.611C263.388 389.532 260.412 385.348 260.412 381.286V374.641C260.412 378.703 263.388 382.887 269.33 385.966C281.092 392.247 300.305 392.247 312.067 385.966C317.887 382.887 320.863 378.834 320.863 374.762Z" fill="#B2FD34" stroke="black" stroke-linecap="round" stroke-linejoin="round"/>
<path d="M320.863 367.996V374.641C320.863 378.703 317.887 382.766 312.067 385.845C300.305 392.116 281.234 392.116 269.33 385.845C263.388 382.766 260.412 378.582 260.412 374.52V367.864C260.412 371.926 263.388 376.11 269.33 379.19C281.092 385.47 300.305 385.47 312.067 379.19C317.887 376.11 320.863 372.048 320.863 367.996Z" fill="#B2FD34" stroke="black" stroke-linecap="round" stroke-linejoin="round"/>
<path d="M320.863 361.228V367.874C320.863 371.936 317.887 375.998 312.067 379.078C300.305 385.358 281.234 385.358 269.33 379.078C263.388 375.998 260.412 371.814 260.412 367.752V361.147C260.412 365.21 263.388 369.393 269.33 372.463C281.092 378.743 300.305 378.743 312.067 372.463C317.887 369.353 320.863 365.291 320.863 361.228Z" fill="#B2FD34" stroke="black" stroke-linecap="round" stroke-linejoin="round"/>
<path d="M320.863 354.462V361.138C320.863 365.2 317.887 369.262 312.067 372.341C300.305 378.612 281.234 378.612 269.33 372.341C263.388 369.262 260.412 365.078 260.412 361.016V354.33C260.412 358.392 263.388 362.576 269.33 365.656C281.092 371.936 300.305 371.936 312.067 365.656C317.887 362.576 320.863 358.514 320.863 354.462Z" fill="#B2FD34" stroke="black" stroke-linecap="round" stroke-linejoin="round"/>
<path d="M320.863 347.685V354.33C320.863 358.393 317.887 362.455 312.067 365.534C300.305 371.815 281.234 371.815 269.33 365.534C263.388 362.455 260.412 358.271 260.412 354.209V347.563C260.412 351.626 263.388 355.809 269.33 358.889C281.092 365.17 300.305 365.17 312.067 358.889C317.887 355.809 320.863 351.747 320.863 347.685Z" fill="#B2FD34" stroke="black" stroke-linecap="round" stroke-linejoin="round"/>
<path d="M320.863 340.917V347.563C320.863 351.625 317.887 355.687 312.067 358.767C300.305 365.047 281.234 365.047 269.33 358.767C263.388 355.687 260.412 351.503 260.412 347.441V340.796C260.412 344.848 263.388 349.042 269.33 352.111C281.092 358.392 300.305 358.392 312.067 352.111C317.887 349.032 320.863 344.97 320.863 340.917Z" fill="#B2FD34" stroke="black" stroke-linecap="round" stroke-linejoin="round"/>
<path d="M320.863 334.151V340.796C320.863 344.858 317.887 348.921 312.067 352C300.305 358.281 281.234 358.281 269.33 352C263.388 348.921 260.412 344.737 260.412 340.675V334.029C260.412 338.091 263.388 342.275 269.33 345.355C281.092 351.625 300.305 351.625 312.067 345.355C317.887 342.275 320.863 338.213 320.863 334.151Z" fill="#B2FD34" stroke="black" stroke-linecap="round" stroke-linejoin="round"/>
<path d="M311.934 322.825C323.697 329.106 323.838 339.074 312.066 345.345C300.304 351.615 281.233 351.625 269.329 345.345C257.567 339.074 257.435 329.106 269.198 322.825C280.96 316.707 300.03 316.707 311.924 322.825H311.934ZM274.755 342.508C283.541 347.178 297.874 347.178 306.529 342.508C315.315 337.828 315.194 330.322 306.397 325.763C297.601 321.093 283.278 321.093 274.623 325.763C265.827 330.322 265.969 337.838 274.755 342.508Z" fill="white" stroke="black" stroke-linecap="round" stroke-linejoin="round"/>
<path d="M306.529 325.652C315.315 330.322 315.447 337.838 306.661 342.387C297.874 347.067 283.673 347.067 274.886 342.387C266.1 337.706 265.968 330.2 274.755 325.652C283.409 321.103 297.601 321.103 306.529 325.652Z" fill="#B2FD34" stroke="black" stroke-linecap="round" stroke-linejoin="round"/>
<path d="M304.263 319.412C312.199 322.106 314.78 324.406 317.108 326.442C315.934 328.296 313.727 330.109 310.468 331.73C299.738 337.19 281.862 338.466 270.464 334.586C266.253 333.148 263.419 331.132 262.062 328.893C265.798 325.297 268.146 322.126 274.908 318.763C285.476 313.445 292.703 315.674 304.263 319.412Z" fill="black"/>
<path d="M307.34 292.932C320.054 294.553 321.947 301.33 311.663 308.239C301.388 315.147 282.723 319.473 270.009 317.852C257.295 316.231 255.402 309.454 265.687 302.546C276.103 295.647 294.758 291.443 307.34 292.932ZM275.424 314.327C284.484 315.411 297.866 312.301 305.306 307.428C312.746 302.414 311.258 297.541 302.198 296.457C293.139 295.373 279.757 298.483 272.317 303.356C264.877 308.37 266.233 313.243 275.435 314.327H275.424Z" fill="white" stroke="black" stroke-linecap="round" stroke-linejoin="round"/>
<path d="M302.066 296.457C311.126 297.541 312.614 302.545 305.174 307.418C297.744 312.432 284.352 315.41 275.292 314.327C266.233 313.243 264.745 308.228 272.185 303.356C279.625 298.483 293.007 295.363 302.066 296.457Z" fill="#B2FD34" stroke="black" stroke-linecap="round" stroke-linejoin="round"/>
<path d="M318.15 298.888L319.912 307.012C320.59 309.717 318.434 313.111 313.423 316.474C303.179 323.383 284.483 327.718 271.769 326.087C265.281 325.297 261.627 323.109 260.959 320.263L259.197 312.128C259.865 314.975 263.52 317.274 270.008 317.953C282.722 319.574 301.388 315.238 311.662 308.339C316.662 304.824 318.828 301.583 318.15 298.878V298.888Z" fill="#B2FD34" stroke="black" stroke-linecap="round" stroke-linejoin="round"/>
<path d="M320.824 336.866L320.865 389.735L314.781 392.916V343.714C314.781 343.714 319.023 341.668 320.834 336.876L320.824 336.866Z" fill="black"/>
<path d="M318.617 300.661L320.034 307.752C320.034 307.752 319.923 312.838 314.781 315.512C313.819 312.159 312.574 307.499 312.574 307.499C312.574 307.499 316.815 305.453 318.627 300.661H318.617Z" fill="black"/>
<path d="M127.264 173.741L140.625 202.197" stroke="black" stroke-linecap="round" stroke-linejoin="round"/>
<path d="M215.064 172.667L202.209 200.008" stroke="black" stroke-linecap="round" stroke-linejoin="round"/>
<path d="M171.346 153.207L172.307 192.117" stroke="black" stroke-linecap="round" stroke-linejoin="round"/>
<path d="M218.385 236.112H227.414C227.414 236.112 232.455 214.788 233.255 210.909C234.054 207.019 230.835 207.555 229.793 208.052C228.76 208.548 221.037 212.185 221.037 212.185L218.395 236.122L218.385 236.112Z" fill="black"/>
</svg>
