<svg width="690" height="590" viewBox="0 0 690 590" fill="none" xmlns="http://www.w3.org/2000/svg">
<path opacity="0.9" d="M15.9705 383.338L314.795 262.501C334.562 254.509 356.626 254.517 376.384 262.543L674.057 383.356C695.358 391.998 695.298 422.46 673.963 431.025L376.096 550.605C356.507 558.469 334.681 558.486 315.084 550.639L16.0638 431.034C-5.31356 422.485 -5.36442 391.972 15.9705 383.338Z" fill="#001E2B"/>
<path d="M15.9705 378.838L314.795 258.001C334.562 250.009 356.626 250.017 376.384 258.043L674.057 378.856C695.358 387.498 695.298 417.96 673.963 426.525L376.096 546.105C356.508 553.969 334.681 553.986 315.084 546.139L16.0638 426.534C-5.31356 417.985 -5.36442 387.472 15.9705 378.838Z" fill="#006CFA"/>
<path d="M308.834 481.624C308.834 485.35 311.714 488.23 315.458 488.23C319.184 488.23 322.226 485.368 321.866 480.706H315.386V482.272H320.156C319.922 484.792 318.086 486.646 315.458 486.646C312.614 486.646 310.508 484.45 310.508 481.624C310.508 478.798 312.614 476.602 315.458 476.602C317.384 476.602 318.968 477.628 319.652 479.014H321.506C320.786 476.89 318.482 475.018 315.458 475.018C311.714 475.018 308.834 477.898 308.834 481.624ZM324.142 488.014H325.69V474.514H324.142V488.014ZM337.318 483.514C337.318 480.922 335.32 478.834 332.62 478.834C329.902 478.834 327.904 480.922 327.904 483.514C327.904 486.106 329.902 488.194 332.62 488.194C335.32 488.194 337.318 486.106 337.318 483.514ZM329.488 483.514C329.488 481.714 330.748 480.274 332.62 480.274C334.492 480.274 335.734 481.714 335.734 483.514C335.734 485.314 334.492 486.754 332.62 486.754C330.748 486.754 329.488 485.314 329.488 483.514ZM341.088 486.628C341.682 487.492 342.906 488.194 344.256 488.194C346.758 488.194 348.666 486.088 348.666 483.514C348.666 480.94 346.758 478.834 344.256 478.834C342.906 478.834 341.682 479.536 341.088 480.4V474.514H339.54V488.014H341.088V486.628ZM347.082 483.514C347.082 485.332 345.84 486.772 344.022 486.772C342.204 486.772 340.962 485.332 340.962 483.514C340.962 481.696 342.204 480.256 344.022 480.256C345.84 480.256 347.082 481.696 347.082 483.514ZM350.176 483.514C350.176 486.088 352.066 488.194 354.586 488.194C355.936 488.194 357.16 487.492 357.754 486.628V488.014H359.302V479.014H357.754V480.4C357.16 479.536 355.936 478.834 354.586 478.834C352.066 478.834 350.176 480.94 350.176 483.514ZM357.88 483.514C357.88 485.332 356.638 486.772 354.82 486.772C353.002 486.772 351.742 485.332 351.742 483.514C351.742 481.696 353.002 480.256 354.82 480.256C356.638 480.256 357.88 481.696 357.88 483.514ZM362.216 488.014H363.764V474.514H362.216V488.014ZM380.994 488.014H383.028L379.716 484.774L382.002 481.858H380.202L378.69 483.784L375.972 481.12C377.214 480.472 378.438 479.572 378.438 477.988C378.438 476.368 377.178 475.018 375.288 475.018C373.47 475.018 372.03 476.206 372.03 477.916C372.03 479.14 372.822 480.076 373.578 480.814L373.488 480.868C372.138 481.642 370.77 482.668 370.77 484.522C370.77 486.628 372.354 488.194 374.694 488.194C376.35 488.194 377.484 487.456 378.816 485.89L380.994 488.014ZM373.524 477.952C373.524 476.962 374.334 476.368 375.252 476.368C376.26 476.368 376.908 477.088 376.908 478.096C376.908 479.068 376.08 479.59 375.054 480.112L374.964 480.148C374.136 479.374 373.524 478.798 373.524 477.952ZM372.336 484.54C372.336 483.316 373.11 482.614 374.37 481.948L374.604 481.804L377.808 484.918C376.746 486.178 375.9 486.79 374.748 486.79C373.506 486.79 372.336 485.962 372.336 484.54ZM303.262 506.27L307.87 500.078V510.014H309.526V497.234H308.014L303.262 503.606L298.51 497.234H296.98V510.014H298.654V500.078L303.262 506.27ZM312.511 506.54C312.511 508.772 313.843 510.194 315.823 510.194C316.957 510.194 318.001 509.672 318.595 508.628V510.014H320.143V501.014H318.595V505.478C318.595 507.548 317.497 508.772 316.093 508.772C314.851 508.772 314.059 507.818 314.059 506.306V501.014H312.511V506.54ZM323.061 510.014H324.609V496.514H323.061V510.014ZM332.421 509.888V508.502C332.133 508.61 331.701 508.682 331.323 508.682C330.351 508.682 329.829 508.304 329.829 507.152V502.436H332.421V501.014H329.829V498.512H328.281V501.014H326.373V502.436H328.281V507.35C328.281 509.222 329.469 510.104 331.035 510.104C331.593 510.104 332.043 510.014 332.421 509.888ZM336.27 497.504C336.27 496.91 335.802 496.406 335.19 496.406C334.578 496.406 334.074 496.91 334.074 497.504C334.074 498.116 334.578 498.602 335.19 498.602C335.802 498.602 336.27 498.116 336.27 497.504ZM334.398 510.014H335.946V501.014H334.398V510.014ZM338.593 505.748H343.183V504.2H338.593V505.748ZM345.194 503.624C345.194 507.35 348.074 510.23 351.818 510.23C355.04 510.23 357.38 508.124 357.938 505.802H356.174C355.616 507.404 353.942 508.646 351.818 508.646C348.974 508.646 346.868 506.45 346.868 503.624C346.868 500.798 348.974 498.602 351.818 498.602C353.942 498.602 355.616 499.844 356.174 501.446H357.938C357.38 499.124 355.04 497.018 351.818 497.018C348.074 497.018 345.194 499.898 345.194 503.624ZM360.01 510.014H361.558V496.514H360.01V510.014ZM373.186 505.514C373.186 502.922 371.188 500.834 368.488 500.834C365.77 500.834 363.772 502.922 363.772 505.514C363.772 508.106 365.77 510.194 368.488 510.194C371.188 510.194 373.186 508.106 373.186 505.514ZM365.356 505.514C365.356 503.714 366.616 502.274 368.488 502.274C370.36 502.274 371.602 503.714 371.602 505.514C371.602 507.314 370.36 508.754 368.488 508.754C366.616 508.754 365.356 507.314 365.356 505.514ZM375.282 506.54C375.282 508.772 376.614 510.194 378.594 510.194C379.728 510.194 380.772 509.672 381.366 508.628V510.014H382.914V501.014H381.366V505.478C381.366 507.548 380.268 508.772 378.864 508.772C377.622 508.772 376.83 507.818 376.83 506.306V501.014H375.282V506.54ZM385.13 505.514C385.13 508.088 387.02 510.194 389.54 510.194C390.89 510.194 392.114 509.492 392.708 508.628V510.014H394.256V496.514H392.708V502.4C392.114 501.536 390.89 500.834 389.54 500.834C387.02 500.834 385.13 502.94 385.13 505.514ZM392.834 505.514C392.834 507.332 391.592 508.772 389.774 508.772C387.956 508.772 386.696 507.332 386.696 505.514C386.696 503.696 387.956 502.256 389.774 502.256C391.592 502.256 392.834 503.696 392.834 505.514Z" fill="white"/>
<path d="M466.711 432.015H468.385V426.201H469.627L474.541 432.015H476.647L471.733 426.183C473.695 425.895 474.883 424.635 474.883 422.763C474.883 420.657 473.425 419.235 471.067 419.235H466.711V432.015ZM468.385 424.707V420.783H470.869C472.327 420.783 473.209 421.467 473.209 422.763C473.209 424.041 472.327 424.707 470.869 424.707H468.385ZM485.685 429.279H484.101C483.561 430.359 482.607 430.791 481.491 430.791C479.871 430.791 478.557 429.567 478.503 427.929H485.829C486.045 425.139 484.335 422.835 481.509 422.835C478.701 422.835 476.937 424.887 476.937 427.515C476.937 430.197 478.845 432.195 481.473 432.195C483.759 432.195 485.235 430.863 485.685 429.279ZM481.455 424.203C482.787 424.203 483.903 425.031 484.191 426.705H478.575C478.881 424.923 480.159 424.203 481.455 424.203ZM494.272 429.585C494.272 428.235 493.462 427.299 491.968 426.921L490.528 426.543C489.574 426.291 489.16 425.913 489.16 425.247C489.16 424.563 489.844 424.131 490.708 424.131C491.554 424.131 492.202 424.617 492.436 425.409H493.984C493.822 423.969 492.634 422.835 490.708 422.835C488.89 422.835 487.594 423.771 487.594 425.265C487.594 426.543 488.368 427.515 489.916 427.911L491.212 428.253C492.274 428.541 492.706 428.973 492.706 429.693C492.706 430.485 491.95 430.881 490.978 430.881C490.042 430.881 489.106 430.503 488.89 429.405H487.306C487.432 431.223 489.034 432.195 490.96 432.195C492.832 432.195 494.272 431.367 494.272 429.585ZM498.337 419.505C498.337 418.911 497.869 418.407 497.257 418.407C496.645 418.407 496.141 418.911 496.141 419.505C496.141 420.117 496.645 420.603 497.257 420.603C497.869 420.603 498.337 420.117 498.337 419.505ZM496.465 432.015H498.013V423.015H496.465V432.015ZM500.947 432.015H502.495V418.515H500.947V432.015ZM507.302 419.505C507.302 418.911 506.834 418.407 506.222 418.407C505.61 418.407 505.106 418.911 505.106 419.505C505.106 420.117 505.61 420.603 506.222 420.603C506.834 420.603 507.302 420.117 507.302 419.505ZM505.43 432.015H506.978V423.015H505.43V432.015ZM517.958 429.279H516.374C515.834 430.359 514.88 430.791 513.764 430.791C512.144 430.791 510.83 429.567 510.776 427.929H518.102C518.318 425.139 516.608 422.835 513.782 422.835C510.974 422.835 509.21 424.887 509.21 427.515C509.21 430.197 511.118 432.195 513.746 432.195C516.032 432.195 517.508 430.863 517.958 429.279ZM513.728 424.203C515.06 424.203 516.176 425.031 516.464 426.705H510.848C511.154 424.923 512.432 424.203 513.728 424.203ZM520.336 432.015H521.884V427.551C521.884 425.445 523.036 424.257 524.494 424.257C525.754 424.257 526.618 425.193 526.618 426.705V432.015H528.148V426.471C528.148 424.239 526.762 422.835 524.746 422.835C523.576 422.835 522.496 423.339 521.884 424.401V423.015H520.336V432.015ZM535.708 431.889V430.503C535.42 430.611 534.988 430.683 534.61 430.683C533.638 430.683 533.116 430.305 533.116 429.153V424.437H535.708V423.015H533.116V420.513H531.568V423.015H529.66V424.437H531.568V429.351C531.568 431.223 532.756 432.105 534.322 432.105C534.88 432.105 535.33 432.015 535.708 431.889ZM551.981 432.015H554.015L550.703 428.775L552.989 425.859H551.189L549.677 427.785L546.959 425.121C548.201 424.473 549.425 423.573 549.425 421.989C549.425 420.369 548.165 419.019 546.275 419.019C544.457 419.019 543.017 420.207 543.017 421.917C543.017 423.141 543.809 424.077 544.565 424.815L544.475 424.869C543.125 425.643 541.757 426.669 541.757 428.523C541.757 430.629 543.341 432.195 545.681 432.195C547.337 432.195 548.471 431.457 549.803 429.891L551.981 432.015ZM544.511 421.953C544.511 420.963 545.321 420.369 546.239 420.369C547.247 420.369 547.895 421.089 547.895 422.097C547.895 423.069 547.067 423.591 546.041 424.113L545.951 424.149C545.123 423.375 544.511 422.799 544.511 421.953ZM543.323 428.541C543.323 427.317 544.097 426.615 545.357 425.949L545.591 425.805L548.795 428.919C547.733 430.179 546.887 430.791 545.735 430.791C544.493 430.791 543.323 429.963 543.323 428.541ZM483.19 454.015H490.642V452.431H484.864V448.273H489.562V446.689H484.864V442.819H490.642V441.235H483.19V454.015ZM492.958 454.015H494.506V440.515H492.958V454.015ZM496.738 449.515C496.738 452.089 498.628 454.195 501.148 454.195C502.498 454.195 503.722 453.493 504.316 452.629V454.015H505.864V445.015H504.316V446.401C503.722 445.537 502.498 444.835 501.148 444.835C498.628 444.835 496.738 446.941 496.738 449.515ZM504.442 449.515C504.442 451.333 503.2 452.773 501.382 452.773C499.564 452.773 498.304 451.333 498.304 449.515C498.304 447.697 499.564 446.257 501.382 446.257C503.2 446.257 504.442 447.697 504.442 449.515ZM514.988 451.585C514.988 450.235 514.178 449.299 512.684 448.921L511.244 448.543C510.29 448.291 509.876 447.913 509.876 447.247C509.876 446.563 510.56 446.131 511.424 446.131C512.27 446.131 512.918 446.617 513.152 447.409H514.7C514.538 445.969 513.35 444.835 511.424 444.835C509.606 444.835 508.31 445.771 508.31 447.265C508.31 448.543 509.084 449.515 510.632 449.911L511.928 450.253C512.99 450.541 513.422 450.973 513.422 451.693C513.422 452.485 512.666 452.881 511.694 452.881C510.758 452.881 509.822 452.503 509.606 451.405H508.022C508.148 453.223 509.75 454.195 511.676 454.195C513.548 454.195 514.988 453.367 514.988 451.585ZM521.918 453.889V452.503C521.63 452.611 521.198 452.683 520.82 452.683C519.848 452.683 519.326 452.305 519.326 451.153V446.437H521.918V445.015H519.326V442.513H517.778V445.015H515.87V446.437H517.778V451.351C517.778 453.223 518.966 454.105 520.532 454.105C521.09 454.105 521.54 454.015 521.918 453.889ZM525.768 441.505C525.768 440.911 525.3 440.407 524.688 440.407C524.076 440.407 523.572 440.911 523.572 441.505C523.572 442.117 524.076 442.603 524.688 442.603C525.3 442.603 525.768 442.117 525.768 441.505ZM523.896 454.015H525.444V445.015H523.896V454.015ZM536.91 450.847H535.254C534.858 451.981 533.778 452.773 532.374 452.773C530.502 452.773 529.242 451.333 529.242 449.515C529.242 447.697 530.502 446.257 532.374 446.257C533.778 446.257 534.858 447.049 535.254 448.183H536.91C536.406 446.239 534.642 444.835 532.374 444.835C529.638 444.835 527.676 446.941 527.676 449.515C527.676 452.089 529.638 454.195 532.374 454.195C534.642 454.195 536.406 452.791 536.91 450.847Z" fill="white"/>
<path d="M144.279 428.595C144.351 430.539 146.043 432.231 148.725 432.231C151.101 432.231 152.793 430.863 152.793 428.703C152.793 426.795 151.677 425.679 149.733 424.977L148.095 424.383C146.853 423.933 146.259 423.393 146.259 422.313C146.259 421.251 147.213 420.585 148.437 420.585C149.481 420.585 150.525 421.143 150.849 422.475H152.505C152.343 420.801 151.065 419.019 148.473 419.019C146.241 419.019 144.585 420.279 144.585 422.367C144.603 424.167 145.557 425.265 147.537 425.967L149.301 426.615C150.489 427.047 151.119 427.749 151.119 428.757C151.119 429.945 150.039 430.665 148.707 430.665C147.501 430.665 146.097 430.017 145.953 428.595H144.279ZM163.116 429.279H161.532C160.992 430.359 160.038 430.791 158.922 430.791C157.302 430.791 155.988 429.567 155.934 427.929H163.26C163.476 425.139 161.766 422.835 158.94 422.835C156.132 422.835 154.368 424.887 154.368 427.515C154.368 430.197 156.276 432.195 158.904 432.195C161.19 432.195 162.666 430.863 163.116 429.279ZM158.886 424.203C160.218 424.203 161.334 425.031 161.622 426.705H156.006C156.312 424.923 157.59 424.203 158.886 424.203ZM174.026 428.847H172.37C171.974 429.981 170.894 430.773 169.49 430.773C167.618 430.773 166.358 429.333 166.358 427.515C166.358 425.697 167.618 424.257 169.49 424.257C170.894 424.257 171.974 425.049 172.37 426.183H174.026C173.522 424.239 171.758 422.835 169.49 422.835C166.754 422.835 164.792 424.941 164.792 427.515C164.792 430.089 166.754 432.195 169.49 432.195C171.758 432.195 173.522 430.791 174.026 428.847ZM175.95 428.541C175.95 430.773 177.282 432.195 179.262 432.195C180.396 432.195 181.44 431.673 182.034 430.629V432.015H183.582V423.015H182.034V427.479C182.034 429.549 180.936 430.773 179.532 430.773C178.29 430.773 177.498 429.819 177.498 428.307V423.015H175.95V428.541ZM186.5 432.015H188.048V427.551C188.048 425.445 189.29 424.455 190.424 424.455C190.73 424.455 190.982 424.491 191.27 424.599V422.997C191.018 422.943 190.802 422.925 190.568 422.925C189.524 422.925 188.408 423.609 188.048 424.761V423.015H186.5V432.015ZM200.821 429.279H199.237C198.697 430.359 197.743 430.791 196.627 430.791C195.007 430.791 193.693 429.567 193.639 427.929H200.965C201.181 425.139 199.471 422.835 196.645 422.835C193.837 422.835 192.073 424.887 192.073 427.515C192.073 430.197 193.981 432.195 196.609 432.195C198.895 432.195 200.371 430.863 200.821 429.279ZM196.591 424.203C197.923 424.203 199.039 425.031 199.327 426.705H193.711C194.017 424.923 195.295 424.203 196.591 424.203ZM217.495 432.015H219.529L216.217 428.775L218.503 425.859H216.703L215.191 427.785L212.473 425.121C213.715 424.473 214.939 423.573 214.939 421.989C214.939 420.369 213.679 419.019 211.789 419.019C209.971 419.019 208.531 420.207 208.531 421.917C208.531 423.141 209.323 424.077 210.079 424.815L209.989 424.869C208.639 425.643 207.271 426.669 207.271 428.523C207.271 430.629 208.855 432.195 211.195 432.195C212.851 432.195 213.985 431.457 215.317 429.891L217.495 432.015ZM210.025 421.953C210.025 420.963 210.835 420.369 211.753 420.369C212.761 420.369 213.409 421.089 213.409 422.097C213.409 423.069 212.581 423.591 211.555 424.113L211.465 424.149C210.637 423.375 210.025 422.799 210.025 421.953ZM208.837 428.541C208.837 427.317 209.611 426.615 210.871 425.949L211.105 425.805L214.309 428.919C213.247 430.179 212.401 430.791 211.249 430.791C210.007 430.791 208.837 429.963 208.837 428.541ZM137.31 447.625C137.31 451.351 140.19 454.231 143.934 454.231C147.156 454.231 149.496 452.125 150.054 449.803H148.29C147.732 451.405 146.058 452.647 143.934 452.647C141.09 452.647 138.984 450.451 138.984 447.625C138.984 444.799 141.09 442.603 143.934 442.603C146.058 442.603 147.732 443.845 148.29 445.447H150.054C149.496 443.125 147.156 441.019 143.934 441.019C140.19 441.019 137.31 443.899 137.31 447.625ZM160.82 449.515C160.82 446.923 158.822 444.835 156.122 444.835C153.404 444.835 151.406 446.923 151.406 449.515C151.406 452.107 153.404 454.195 156.122 454.195C158.822 454.195 160.82 452.107 160.82 449.515ZM152.99 449.515C152.99 447.715 154.25 446.275 156.122 446.275C157.994 446.275 159.236 447.715 159.236 449.515C159.236 451.315 157.994 452.755 156.122 452.755C154.25 452.755 152.99 451.315 152.99 449.515ZM163.042 454.015H164.59V449.551C164.59 447.517 165.616 446.257 167.074 446.257C168.244 446.257 168.838 447.265 168.838 448.723V454.015H170.386V449.551C170.386 447.517 171.394 446.257 172.852 446.257C174.022 446.257 174.634 447.265 174.634 448.723V454.015H176.182V448.489C176.182 446.293 174.994 444.835 173.032 444.835C171.7 444.835 170.566 445.573 170.08 446.761C169.63 445.573 168.658 444.835 167.308 444.835C166.102 444.835 165.112 445.447 164.59 446.401V445.015H163.042V454.015ZM178.968 457.777H180.516V452.629C181.11 453.493 182.334 454.195 183.684 454.195C186.186 454.195 188.094 452.089 188.094 449.515C188.094 446.941 186.186 444.835 183.684 444.835C182.334 444.835 181.11 445.537 180.516 446.401V445.015H178.968V457.777ZM186.51 449.515C186.51 451.333 185.268 452.773 183.45 452.773C181.632 452.773 180.39 451.333 180.39 449.515C180.39 447.697 181.632 446.257 183.45 446.257C185.268 446.257 186.51 447.697 186.51 449.515ZM190.323 454.015H191.871V440.515H190.323V454.015ZM196.678 441.505C196.678 440.911 196.21 440.407 195.598 440.407C194.986 440.407 194.482 440.911 194.482 441.505C194.482 442.117 194.986 442.603 195.598 442.603C196.21 442.603 196.678 442.117 196.678 441.505ZM194.806 454.015H196.354V445.015H194.806V454.015ZM198.586 449.515C198.586 452.089 200.476 454.195 202.996 454.195C204.346 454.195 205.57 453.493 206.164 452.629V454.015H207.712V445.015H206.164V446.401C205.57 445.537 204.346 444.835 202.996 444.835C200.476 444.835 198.586 446.941 198.586 449.515ZM206.29 449.515C206.29 451.333 205.048 452.773 203.23 452.773C201.412 452.773 200.152 451.333 200.152 449.515C200.152 447.697 201.412 446.257 203.23 446.257C205.048 446.257 206.29 447.697 206.29 449.515ZM210.626 454.015H212.174V449.551C212.174 447.445 213.326 446.257 214.784 446.257C216.044 446.257 216.908 447.193 216.908 448.705V454.015H218.438V448.471C218.438 446.239 217.052 444.835 215.036 444.835C213.866 444.835 212.786 445.339 212.174 446.401V445.015H210.626V454.015ZM225.998 453.889V452.503C225.71 452.611 225.278 452.683 224.9 452.683C223.928 452.683 223.406 452.305 223.406 451.153V446.437H225.998V445.015H223.406V442.513H221.858V445.015H219.95V446.437H221.858V451.351C221.858 453.223 223.046 454.105 224.612 454.105C225.17 454.105 225.62 454.015 225.998 453.889Z" fill="white"/>
<path opacity="0.3" d="M579 341.015L192 496.015" stroke="white" stroke-linecap="square"/>
<path opacity="0.3" d="M499 496.015L112 341.015" stroke="white" stroke-linecap="square"/>
<g opacity="0.1">
<path opacity="0.9" d="M125.647 263.564L324.865 183.005C338.043 177.677 352.752 177.683 365.924 183.034L564.373 263.576C578.574 269.337 578.535 289.645 564.311 295.356L365.732 375.076C352.673 380.319 338.122 380.33 325.057 375.099L125.709 295.361C111.458 289.663 111.424 269.32 125.647 263.564Z" fill="#001E2B"/>
<path opacity="0.9" d="M96.6642 356.38L157.296 332.212C161.306 330.614 165.783 330.616 169.792 332.221L230.189 356.383C234.511 358.112 234.499 364.204 230.17 365.917L169.733 389.833C165.759 391.406 161.33 391.41 157.354 389.84L96.6832 365.919C92.3457 364.209 92.3354 358.107 96.6642 356.38Z" fill="#001E2B"/>
<path opacity="0.9" d="M192.484 395.38L253.115 371.212C257.126 369.614 261.602 369.616 265.611 371.221L326.009 395.383C330.331 397.112 330.318 403.204 325.99 404.917L265.553 428.833C261.578 430.406 257.15 430.41 253.173 428.84L192.502 404.919C188.165 403.209 188.155 397.107 192.484 395.38Z" fill="#001E2B"/>
<path opacity="0.9" d="M593.579 356.38L532.948 332.212C528.937 330.614 524.46 330.616 520.451 332.221L460.054 356.383C455.732 358.112 455.744 364.204 460.073 365.917L520.51 389.833C524.484 391.406 528.913 391.41 532.889 389.84L593.56 365.919C597.897 364.209 597.908 358.107 593.579 356.38Z" fill="#001E2B"/>
<path opacity="0.9" d="M497.76 395.38L437.128 371.212C433.118 369.614 428.641 369.616 424.632 371.221L364.235 395.383C359.913 397.112 359.925 403.204 364.254 404.917L424.69 428.833C428.665 430.406 433.094 430.41 437.07 428.84L497.741 404.919C502.078 403.209 502.088 397.107 497.76 395.38Z" fill="#001E2B"/>
</g>
<path opacity="0.9" d="M125.647 247.564L324.865 167.005C338.043 161.677 352.752 161.683 365.924 167.034L564.373 247.576C578.574 253.337 578.535 273.645 564.311 279.356L365.732 359.076C352.673 364.319 338.122 364.33 325.057 359.099L125.709 279.361C111.458 273.663 111.424 253.32 125.647 247.564Z" fill="#001E2B"/>
<path d="M125.647 244.564L324.865 164.005C338.043 158.677 352.752 158.683 365.924 164.034L564.373 244.576C578.574 250.337 578.535 270.645 564.311 276.356L365.732 356.076C352.673 361.319 338.122 361.33 325.057 356.099L125.709 276.361C111.458 270.663 111.424 250.32 125.647 244.564Z" fill="#00ED64"/>
<path d="M287.037 296.047V288.235H285.363V296.083C285.363 298.369 284.031 299.647 282.033 299.647C280.035 299.647 278.703 298.369 278.703 296.083V288.235H277.029V296.047C277.029 299.233 279.081 301.231 282.033 301.231C284.985 301.231 287.037 299.233 287.037 296.047ZM289.859 301.015H291.407V296.551C291.407 294.445 292.559 293.257 294.017 293.257C295.277 293.257 296.141 294.193 296.141 295.705V301.015H297.671V295.471C297.671 293.239 296.285 291.835 294.269 291.835C293.099 291.835 292.019 292.339 291.407 293.401V292.015H289.859V301.015ZM302.331 288.505C302.331 287.911 301.863 287.407 301.251 287.407C300.639 287.407 300.135 287.911 300.135 288.505C300.135 289.117 300.639 289.603 301.251 289.603C301.863 289.603 302.331 289.117 302.331 288.505ZM300.459 301.015H302.007V292.015H300.459V301.015ZM305.697 301.015H307.245V293.437H309.855V292.015H307.245V290.359C307.245 289.225 307.749 288.829 308.739 288.829C309.099 288.829 309.567 288.901 309.855 289.009V287.641C309.459 287.497 308.991 287.407 308.451 287.407C306.885 287.407 305.697 288.343 305.697 290.197V292.015H303.789V293.437H305.697V301.015ZM313.419 288.505C313.419 287.911 312.951 287.407 312.339 287.407C311.727 287.407 311.223 287.911 311.223 288.505C311.223 289.117 311.727 289.603 312.339 289.603C312.951 289.603 313.419 289.117 313.419 288.505ZM311.547 301.015H313.095V292.015H311.547V301.015ZM324.062 298.279H322.478C321.938 299.359 320.984 299.791 319.868 299.791C318.248 299.791 316.934 298.567 316.88 296.929H324.206C324.422 294.139 322.712 291.835 319.886 291.835C317.078 291.835 315.314 293.887 315.314 296.515C315.314 299.197 317.222 301.195 319.85 301.195C322.136 301.195 323.612 299.863 324.062 298.279ZM319.832 293.203C321.164 293.203 322.28 294.031 322.568 295.705H316.952C317.258 293.923 318.536 293.203 319.832 293.203ZM325.737 296.515C325.737 299.089 327.627 301.195 330.147 301.195C331.497 301.195 332.721 300.493 333.315 299.629V301.015H334.863V287.515H333.315V293.401C332.721 292.537 331.497 291.835 330.147 291.835C327.627 291.835 325.737 293.941 325.737 296.515ZM333.441 296.515C333.441 298.333 332.199 299.773 330.381 299.773C328.563 299.773 327.303 298.333 327.303 296.515C327.303 294.697 328.563 293.257 330.381 293.257C332.199 293.257 333.441 294.697 333.441 296.515ZM353.315 301.015H355.601L353.225 298.819C354.143 297.685 354.683 296.227 354.683 294.625C354.683 290.917 351.767 288.019 348.077 288.019C344.405 288.019 341.471 290.917 341.471 294.625C341.471 298.333 344.405 301.231 348.077 301.231C349.607 301.231 350.993 300.727 352.109 299.899L353.315 301.015ZM343.163 294.625C343.163 291.817 345.287 289.603 348.077 289.603C350.885 289.603 353.009 291.817 353.009 294.625C353.009 295.795 352.649 296.857 352.019 297.703L349.895 295.741L348.869 296.893L350.903 298.783C350.111 299.323 349.139 299.647 348.077 299.647C345.287 299.647 343.163 297.433 343.163 294.625ZM357.075 297.541C357.075 299.773 358.407 301.195 360.387 301.195C361.521 301.195 362.565 300.673 363.159 299.629V301.015H364.707V292.015H363.159V296.479C363.159 298.549 362.061 299.773 360.657 299.773C359.415 299.773 358.623 298.819 358.623 297.307V292.015H357.075V297.541ZM375.671 298.279H374.087C373.547 299.359 372.593 299.791 371.477 299.791C369.857 299.791 368.543 298.567 368.489 296.929H375.815C376.031 294.139 374.321 291.835 371.495 291.835C368.687 291.835 366.923 293.887 366.923 296.515C366.923 299.197 368.831 301.195 371.459 301.195C373.745 301.195 375.221 299.863 375.671 298.279ZM371.441 293.203C372.773 293.203 373.889 294.031 374.177 295.705H368.561C368.867 293.923 370.145 293.203 371.441 293.203ZM378.049 301.015H379.597V296.551C379.597 294.445 380.839 293.455 381.973 293.455C382.279 293.455 382.531 293.491 382.819 293.599V291.997C382.567 291.943 382.351 291.925 382.117 291.925C381.073 291.925 379.957 292.609 379.597 293.761V292.015H378.049V301.015ZM387.035 304.777L392.939 292.015H391.211L388.133 298.837L385.037 292.015H383.327L387.269 300.547L385.307 304.777H387.035ZM396.474 301.015H398.202L399.84 297.289H405.798L407.436 301.015H409.182L403.512 288.235H402.126L396.474 301.015ZM400.488 295.777L402.81 290.503L405.132 295.777H400.488ZM414.884 288.235H410.978V301.015H412.652V296.353H414.884C417.548 296.353 419.276 294.607 419.276 292.303C419.276 289.999 417.548 288.235 414.884 288.235ZM414.884 294.805H412.652V289.801H414.884C416.648 289.801 417.62 290.881 417.62 292.303C417.62 293.725 416.648 294.805 414.884 294.805ZM421.525 301.015H423.199V288.235H421.525V301.015Z" fill="#001E2B"/>
<path opacity="0.9" d="M3.2404 302.38L63.8717 278.212C67.8823 276.614 72.3591 276.616 76.368 278.221L136.765 302.383C141.087 304.112 141.075 310.204 136.746 311.917L76.3096 335.833C72.335 337.406 67.9064 337.41 63.9301 335.84L3.25932 311.919C-1.07812 310.209 -1.08844 304.107 3.2404 302.38Z" fill="#001E2B"/>
<path d="M3.2404 299.38L63.8717 275.212C67.8823 273.614 72.3591 273.616 76.368 275.221L136.765 299.383C141.087 301.112 141.075 307.204 136.746 308.917L76.3096 332.833C72.335 334.406 67.9064 334.41 63.9301 332.84L3.25932 308.919C-1.07812 307.209 -1.08844 301.107 3.2404 299.38Z" fill="#00D2FF"/>
<path d="M31.301 309.015H32.484V300.929H35.357V299.785H28.428V300.929H31.301V309.015ZM35.468 309.015H36.586V305.791C36.586 304.27 37.483 303.555 38.302 303.555C38.523 303.555 38.705 303.581 38.913 303.659V302.502C38.731 302.463 38.575 302.45 38.406 302.45C37.652 302.45 36.846 302.944 36.586 303.776V302.515H35.468V309.015ZM39.506 305.765C39.506 307.624 40.871 309.145 42.691 309.145C43.666 309.145 44.55 308.638 44.979 308.014V309.015H46.097V302.515H44.979V303.516C44.55 302.892 43.666 302.385 42.691 302.385C40.871 302.385 39.506 303.906 39.506 305.765ZM45.07 305.765C45.07 307.078 44.173 308.118 42.86 308.118C41.547 308.118 40.637 307.078 40.637 305.765C40.637 304.452 41.547 303.412 42.86 303.412C44.173 303.412 45.07 304.452 45.07 305.765ZM48.2014 309.015H49.3194V305.791C49.3194 304.27 50.1514 303.412 51.2044 303.412C52.1144 303.412 52.7384 304.088 52.7384 305.18V309.015H53.8434V305.011C53.8434 303.399 52.8424 302.385 51.3864 302.385C50.5414 302.385 49.7614 302.749 49.3194 303.516V302.515H48.2014V309.015ZM60.3417 307.26C60.3417 306.285 59.7567 305.609 58.6777 305.336L57.6377 305.063C56.9487 304.881 56.6497 304.608 56.6497 304.127C56.6497 303.633 57.1437 303.321 57.7677 303.321C58.3787 303.321 58.8467 303.672 59.0157 304.244H60.1337C60.0167 303.204 59.1587 302.385 57.7677 302.385C56.4547 302.385 55.5187 303.061 55.5187 304.14C55.5187 305.063 56.0777 305.765 57.1957 306.051L58.1317 306.298C58.8987 306.506 59.2107 306.818 59.2107 307.338C59.2107 307.91 58.6647 308.196 57.9627 308.196C57.2867 308.196 56.6107 307.923 56.4547 307.13H55.3107C55.4017 308.443 56.5587 309.145 57.9497 309.145C59.3017 309.145 60.3417 308.547 60.3417 307.26ZM61.4181 305.765C61.4181 307.624 62.7831 309.145 64.6031 309.145C65.5781 309.145 66.4621 308.638 66.8911 308.014V309.015H68.0091V302.515H66.8911V303.516C66.4621 302.892 65.5781 302.385 64.6031 302.385C62.7831 302.385 61.4181 303.906 61.4181 305.765ZM66.9821 305.765C66.9821 307.078 66.0851 308.118 64.7721 308.118C63.4591 308.118 62.5491 307.078 62.5491 305.765C62.5491 304.452 63.4591 303.412 64.7721 303.412C66.0851 303.412 66.9821 304.452 66.9821 305.765ZM76.2755 306.727H75.0795C74.7935 307.546 74.0135 308.118 72.9995 308.118C71.6475 308.118 70.7375 307.078 70.7375 305.765C70.7375 304.452 71.6475 303.412 72.9995 303.412C74.0135 303.412 74.7935 303.984 75.0795 304.803H76.2755C75.9115 303.399 74.6375 302.385 72.9995 302.385C71.0235 302.385 69.6065 303.906 69.6065 305.765C69.6065 307.624 71.0235 309.145 72.9995 309.145C74.6375 309.145 75.9115 308.131 76.2755 306.727ZM81.2156 308.924V307.923C81.0076 308.001 80.6956 308.053 80.4226 308.053C79.7206 308.053 79.3436 307.78 79.3436 306.948V303.542H81.2156V302.515H79.3436V300.708H78.2256V302.515H76.8476V303.542H78.2256V307.091C78.2256 308.443 79.0836 309.08 80.2146 309.08C80.6176 309.08 80.9426 309.015 81.2156 308.924ZM83.9958 299.98C83.9958 299.551 83.6578 299.187 83.2158 299.187C82.7738 299.187 82.4098 299.551 82.4098 299.98C82.4098 300.422 82.7738 300.773 83.2158 300.773C83.6578 300.773 83.9958 300.422 83.9958 299.98ZM82.6438 309.015H83.7618V302.515H82.6438V309.015ZM92.1601 305.765C92.1601 303.893 90.7171 302.385 88.7671 302.385C86.8041 302.385 85.3611 303.893 85.3611 305.765C85.3611 307.637 86.8041 309.145 88.7671 309.145C90.7171 309.145 92.1601 307.637 92.1601 305.765ZM86.5051 305.765C86.5051 304.465 87.4151 303.425 88.7671 303.425C90.1191 303.425 91.0161 304.465 91.0161 305.765C91.0161 307.065 90.1191 308.105 88.7671 308.105C87.4151 308.105 86.5051 307.065 86.5051 305.765ZM93.7649 309.015H94.8829V305.791C94.8829 304.27 95.7149 303.412 96.7679 303.412C97.6779 303.412 98.3019 304.088 98.3019 305.18V309.015H99.4069V305.011C99.4069 303.399 98.4059 302.385 96.9499 302.385C96.1049 302.385 95.3249 302.749 94.8829 303.516V302.515H93.7649V309.015ZM100.913 305.765C100.913 307.624 102.278 309.145 104.098 309.145C105.073 309.145 105.957 308.638 106.386 308.014V309.015H107.504V302.515H106.386V303.516C105.957 302.892 105.073 302.385 104.098 302.385C102.278 302.385 100.913 303.906 100.913 305.765ZM106.477 305.765C106.477 307.078 105.58 308.118 104.267 308.118C102.954 308.118 102.044 307.078 102.044 305.765C102.044 304.452 102.954 303.412 104.267 303.412C105.58 303.412 106.477 304.452 106.477 305.765ZM109.609 309.015H110.727V299.265H109.609V309.015Z" fill="#001E2B"/>
<path opacity="0.9" d="M96.6642 340.38L157.296 316.212C161.306 314.614 165.783 314.616 169.792 316.221L230.189 340.383C234.511 342.112 234.499 348.204 230.17 349.917L169.733 373.833C165.759 375.406 161.33 375.41 157.354 373.84L96.6832 349.919C92.3457 348.209 92.3354 342.107 96.6642 340.38Z" fill="#001E2B"/>
<path d="M96.6642 337.38L157.296 313.212C161.306 311.614 165.783 311.616 169.792 313.221L230.189 337.383C234.511 339.112 234.499 345.204 230.17 346.917L169.733 370.833C165.759 372.406 161.33 372.41 157.354 370.84L96.6832 346.919C92.3457 345.209 92.3354 339.107 96.6642 337.38Z" fill="#00D2FF"/>
<path d="M142.136 344.545C142.188 345.949 143.41 347.171 145.347 347.171C147.063 347.171 148.285 346.183 148.285 344.623C148.285 343.245 147.479 342.439 146.075 341.932L144.892 341.503C143.995 341.178 143.566 340.788 143.566 340.008C143.566 339.241 144.255 338.76 145.139 338.76C145.893 338.76 146.647 339.163 146.881 340.125H148.077C147.96 338.916 147.037 337.629 145.165 337.629C143.553 337.629 142.357 338.539 142.357 340.047C142.37 341.347 143.059 342.14 144.489 342.647L145.763 343.115C146.621 343.427 147.076 343.934 147.076 344.662C147.076 345.52 146.296 346.04 145.334 346.04C144.463 346.04 143.449 345.572 143.345 344.545H142.136ZM155.74 345.039H154.596C154.206 345.819 153.517 346.131 152.711 346.131C151.541 346.131 150.592 345.247 150.553 344.064H155.844C156 342.049 154.765 340.385 152.724 340.385C150.696 340.385 149.422 341.867 149.422 343.765C149.422 345.702 150.8 347.145 152.698 347.145C154.349 347.145 155.415 346.183 155.74 345.039ZM152.685 341.373C153.647 341.373 154.453 341.971 154.661 343.18H150.605C150.826 341.893 151.749 341.373 152.685 341.373ZM156.951 343.765C156.951 345.624 158.316 347.145 160.136 347.145C161.111 347.145 161.995 346.638 162.424 346.014V347.015H163.542V340.515H162.424V341.516C161.995 340.892 161.111 340.385 160.136 340.385C158.316 340.385 156.951 341.906 156.951 343.765ZM162.515 343.765C162.515 345.078 161.618 346.118 160.305 346.118C158.992 346.118 158.082 345.078 158.082 343.765C158.082 342.452 158.992 341.412 160.305 341.412C161.618 341.412 162.515 342.452 162.515 343.765ZM165.646 347.015H166.764V343.791C166.764 342.27 167.661 341.555 168.48 341.555C168.701 341.555 168.883 341.581 169.091 341.659V340.502C168.909 340.463 168.753 340.45 168.584 340.45C167.83 340.45 167.024 340.944 166.764 341.776V340.515H165.646V347.015ZM176.34 344.727H175.144C174.858 345.546 174.078 346.118 173.064 346.118C171.712 346.118 170.802 345.078 170.802 343.765C170.802 342.452 171.712 341.412 173.064 341.412C174.078 341.412 174.858 341.984 175.144 342.803H176.34C175.976 341.399 174.702 340.385 173.064 340.385C171.088 340.385 169.671 341.906 169.671 343.765C169.671 345.624 171.088 347.145 173.064 347.145C174.702 347.145 175.976 346.131 176.34 344.727ZM177.821 347.015H178.939V343.791C178.939 342.27 179.771 341.412 180.824 341.412C181.734 341.412 182.358 342.088 182.358 343.18V347.015H183.463V343.011C183.463 341.399 182.462 340.385 181.006 340.385C180.161 340.385 179.381 340.749 178.939 341.516V337.265H177.821V347.015Z" fill="#001E2B"/>
<path opacity="0.9" d="M192.484 379.38L253.115 355.212C257.126 353.614 261.602 353.616 265.611 355.221L326.009 379.383C330.331 381.112 330.318 387.204 325.99 388.917L265.553 412.833C261.578 414.406 257.15 414.41 253.173 412.84L192.502 388.919C188.165 387.209 188.155 381.107 192.484 379.38Z" fill="#001E2B"/>
<path d="M192.484 376.38L253.115 352.212C257.126 350.614 261.602 350.616 265.611 352.221L326.009 376.383C330.331 378.112 330.318 384.204 325.99 385.917L265.553 409.833C261.578 411.406 257.15 411.41 253.173 409.84L192.502 385.919C188.165 384.209 188.155 378.107 192.484 376.38Z" fill="#00D2FF"/>
<path d="M227.689 386.015H228.937L230.12 383.324H234.423L235.606 386.015H236.867L232.772 376.785H231.771L227.689 386.015ZM230.588 382.232L232.265 378.423L233.942 382.232H230.588ZM237.995 386.015H239.113V382.791C239.113 381.27 239.945 380.412 240.998 380.412C241.908 380.412 242.532 381.088 242.532 382.18V386.015H243.637V382.011C243.637 380.399 242.636 379.385 241.18 379.385C240.335 379.385 239.555 379.749 239.113 380.516V379.515H237.995V386.015ZM245.143 382.765C245.143 384.624 246.508 386.145 248.328 386.145C249.303 386.145 250.187 385.638 250.616 385.014V386.015H251.734V379.515H250.616V380.516C250.187 379.892 249.303 379.385 248.328 379.385C246.508 379.385 245.143 380.906 245.143 382.765ZM250.707 382.765C250.707 384.078 249.81 385.118 248.497 385.118C247.184 385.118 246.274 384.078 246.274 382.765C246.274 381.452 247.184 380.412 248.497 380.412C249.81 380.412 250.707 381.452 250.707 382.765ZM253.839 386.015H254.957V376.265H253.839V386.015ZM258.805 388.732L263.069 379.515H261.821L259.598 384.442L257.362 379.515H256.127L258.974 385.677L257.557 388.732H258.805ZM267.708 385.924V384.923C267.5 385.001 267.188 385.053 266.915 385.053C266.213 385.053 265.836 384.78 265.836 383.948V380.542H267.708V379.515H265.836V377.708H264.718V379.515H263.34V380.542H264.718V384.091C264.718 385.443 265.576 386.08 266.707 386.08C267.11 386.08 267.435 386.015 267.708 385.924ZM270.488 376.98C270.488 376.551 270.15 376.187 269.708 376.187C269.266 376.187 268.902 376.551 268.902 376.98C268.902 377.422 269.266 377.773 269.708 377.773C270.15 377.773 270.488 377.422 270.488 376.98ZM269.136 386.015H270.254V379.515H269.136V386.015ZM278.536 383.727H277.34C277.054 384.546 276.274 385.118 275.26 385.118C273.908 385.118 272.998 384.078 272.998 382.765C272.998 381.452 273.908 380.412 275.26 380.412C276.274 380.412 277.054 380.984 277.34 381.803H278.536C278.172 380.399 276.898 379.385 275.26 379.385C273.284 379.385 271.867 380.906 271.867 382.765C271.867 384.624 273.284 386.145 275.26 386.145C276.898 386.145 278.172 385.131 278.536 383.727ZM279.509 382.765C279.509 384.624 280.874 386.145 282.694 386.145C283.669 386.145 284.553 385.638 284.982 385.014V386.015H286.1V379.515H284.982V380.516C284.553 379.892 283.669 379.385 282.694 379.385C280.874 379.385 279.509 380.906 279.509 382.765ZM285.073 382.765C285.073 384.078 284.176 385.118 282.863 385.118C281.55 385.118 280.64 384.078 280.64 382.765C280.64 381.452 281.55 380.412 282.863 380.412C284.176 380.412 285.073 381.452 285.073 382.765ZM288.205 386.015H289.323V376.265H288.205V386.015Z" fill="#001E2B"/>
<path opacity="0.9" d="M686.76 302.38L626.128 278.212C622.118 276.614 617.641 276.616 613.632 278.221L553.235 302.383C548.913 304.112 548.925 310.204 553.254 311.917L613.69 335.833C617.665 337.406 622.094 337.41 626.07 335.84L686.741 311.919C691.078 310.209 691.088 304.107 686.76 302.38Z" fill="#001E2B"/>
<path d="M686.76 299.38L626.128 275.212C622.118 273.614 617.641 273.616 613.632 275.221L553.235 299.383C548.913 301.112 548.925 307.204 553.254 308.917L613.69 332.833C617.665 334.406 622.094 334.41 626.07 332.84L686.741 308.919C691.078 307.209 691.088 301.107 686.76 299.38Z" fill="#A6FFEC"/>
<path d="M589.69 299.545C589.742 300.949 590.964 302.171 592.901 302.171C594.617 302.171 595.839 301.183 595.839 299.623C595.839 298.245 595.033 297.439 593.629 296.932L592.446 296.503C591.549 296.178 591.12 295.788 591.12 295.008C591.12 294.241 591.809 293.76 592.693 293.76C593.447 293.76 594.201 294.163 594.435 295.125H595.631C595.514 293.916 594.591 292.629 592.719 292.629C591.107 292.629 589.911 293.539 589.911 295.047C589.924 296.347 590.613 297.14 592.043 297.647L593.317 298.115C594.175 298.427 594.63 298.934 594.63 299.662C594.63 300.52 593.85 301.04 592.888 301.04C592.017 301.04 591.003 300.572 590.899 299.545H589.69ZM603.295 300.039H602.151C601.761 300.819 601.072 301.131 600.266 301.131C599.096 301.131 598.147 300.247 598.108 299.064H603.399C603.555 297.049 602.32 295.385 600.279 295.385C598.251 295.385 596.977 296.867 596.977 298.765C596.977 300.702 598.355 302.145 600.253 302.145C601.904 302.145 602.97 301.183 603.295 300.039ZM600.24 296.373C601.202 296.373 602.008 296.971 602.216 298.18H598.16C598.381 296.893 599.304 296.373 600.24 296.373ZM605.012 302.015H606.13V298.791C606.13 297.27 607.027 296.555 607.846 296.555C608.067 296.555 608.249 296.581 608.457 296.659V295.502C608.275 295.463 608.119 295.45 607.95 295.45C607.196 295.45 606.39 295.944 606.13 296.776V295.515H605.012V302.015ZM611.801 302.015H612.737L615.74 295.515H614.492L612.269 300.429L610.046 295.515H608.798L611.801 302.015ZM622.541 300.039H621.397C621.007 300.819 620.318 301.131 619.512 301.131C618.342 301.131 617.393 300.247 617.354 299.064H622.645C622.801 297.049 621.566 295.385 619.525 295.385C617.497 295.385 616.223 296.867 616.223 298.765C616.223 300.702 617.601 302.145 619.499 302.145C621.15 302.145 622.216 301.183 622.541 300.039ZM619.486 296.373C620.448 296.373 621.254 296.971 621.462 298.18H617.406C617.627 296.893 618.55 296.373 619.486 296.373ZM624.259 302.015H625.377V298.791C625.377 297.27 626.274 296.555 627.093 296.555C627.314 296.555 627.496 296.581 627.704 296.659V295.502C627.522 295.463 627.366 295.45 627.197 295.45C626.443 295.45 625.637 295.944 625.377 296.776V295.515H624.259V302.015ZM629.019 302.015H630.137V292.265H629.019V302.015ZM638.068 300.039H636.924C636.534 300.819 635.845 301.131 635.039 301.131C633.869 301.131 632.92 300.247 632.881 299.064H638.172C638.328 297.049 637.093 295.385 635.052 295.385C633.024 295.385 631.75 296.867 631.75 298.765C631.75 300.702 633.128 302.145 635.026 302.145C636.677 302.145 637.743 301.183 638.068 300.039ZM635.013 296.373C635.975 296.373 636.781 296.971 636.989 298.18H632.933C633.154 296.893 634.077 296.373 635.013 296.373ZM644.27 300.26C644.27 299.285 643.685 298.609 642.606 298.336L641.566 298.063C640.877 297.881 640.578 297.608 640.578 297.127C640.578 296.633 641.072 296.321 641.696 296.321C642.307 296.321 642.775 296.672 642.944 297.244H644.062C643.945 296.204 643.087 295.385 641.696 295.385C640.383 295.385 639.447 296.061 639.447 297.14C639.447 298.063 640.006 298.765 641.124 299.051L642.06 299.298C642.827 299.506 643.139 299.818 643.139 300.338C643.139 300.91 642.593 301.196 641.891 301.196C641.215 301.196 640.539 300.923 640.383 300.13H639.239C639.33 301.443 640.487 302.145 641.878 302.145C643.23 302.145 644.27 301.547 644.27 300.26ZM650.338 300.26C650.338 299.285 649.753 298.609 648.674 298.336L647.634 298.063C646.945 297.881 646.646 297.608 646.646 297.127C646.646 296.633 647.14 296.321 647.764 296.321C648.375 296.321 648.843 296.672 649.012 297.244H650.13C650.013 296.204 649.155 295.385 647.764 295.385C646.451 295.385 645.515 296.061 645.515 297.14C645.515 298.063 646.074 298.765 647.192 299.051L648.128 299.298C648.895 299.506 649.207 299.818 649.207 300.338C649.207 300.91 648.661 301.196 647.959 301.196C647.283 301.196 646.607 300.923 646.451 300.13H645.307C645.398 301.443 646.555 302.145 647.946 302.145C649.298 302.145 650.338 301.547 650.338 300.26ZM604.177 315.015H605.425L606.608 312.324H610.911L612.094 315.015H613.355L609.26 305.785H608.259L604.177 315.015ZM607.076 311.232L608.753 307.423L610.43 311.232H607.076ZM614.483 317.732H615.601V314.014C616.03 314.638 616.914 315.145 617.889 315.145C619.696 315.145 621.074 313.624 621.074 311.765C621.074 309.906 619.696 308.385 617.889 308.385C616.914 308.385 616.03 308.892 615.601 309.516V308.515H614.483V317.732ZM619.93 311.765C619.93 313.078 619.033 314.118 617.72 314.118C616.407 314.118 615.51 313.078 615.51 311.765C615.51 310.452 616.407 309.412 617.72 309.412C619.033 309.412 619.93 310.452 619.93 311.765ZM622.684 317.732H623.802V314.014C624.231 314.638 625.115 315.145 626.09 315.145C627.897 315.145 629.275 313.624 629.275 311.765C629.275 309.906 627.897 308.385 626.09 308.385C625.115 308.385 624.231 308.892 623.802 309.516V308.515H622.684V317.732ZM628.131 311.765C628.131 313.078 627.234 314.118 625.921 314.118C624.608 314.118 623.711 313.078 623.711 311.765C623.711 310.452 624.608 309.412 625.921 309.412C627.234 309.412 628.131 310.452 628.131 311.765ZM635.371 313.26C635.371 312.285 634.786 311.609 633.707 311.336L632.667 311.063C631.978 310.881 631.679 310.608 631.679 310.127C631.679 309.633 632.173 309.321 632.797 309.321C633.408 309.321 633.876 309.672 634.045 310.244H635.163C635.046 309.204 634.188 308.385 632.797 308.385C631.484 308.385 630.548 309.061 630.548 310.14C630.548 311.063 631.107 311.765 632.225 312.051L633.161 312.298C633.928 312.506 634.24 312.818 634.24 313.338C634.24 313.91 633.694 314.196 632.992 314.196C632.316 314.196 631.64 313.923 631.484 313.13H630.34C630.431 314.443 631.588 315.145 632.979 315.145C634.331 315.145 635.371 314.547 635.371 313.26Z" fill="#001E2B"/>
<path opacity="0.9" d="M593.579 340.38L532.948 316.212C528.937 314.614 524.46 314.616 520.451 316.221L460.054 340.383C455.732 342.112 455.744 348.204 460.073 349.917L520.51 373.833C524.484 375.406 528.913 375.41 532.889 373.84L593.56 349.919C597.897 348.209 597.908 342.107 593.579 340.38Z" fill="#001E2B"/>
<path d="M593.579 337.38L532.948 313.212C528.937 311.614 524.46 311.616 520.451 313.221L460.054 337.383C455.732 339.112 455.744 345.204 460.073 346.917L520.51 370.833C524.484 372.406 528.913 372.41 532.889 370.84L593.56 346.919C597.897 345.209 597.908 339.107 593.579 337.38Z" fill="#A6FFEC"/>
<path d="M512.021 337.311L515.349 332.839V340.015H516.545V330.785H515.453L512.021 335.387L508.589 330.785H507.484V340.015H508.693V332.839L512.021 337.311ZM524.995 336.765C524.995 334.893 523.552 333.385 521.602 333.385C519.639 333.385 518.196 334.893 518.196 336.765C518.196 338.637 519.639 340.145 521.602 340.145C523.552 340.145 524.995 338.637 524.995 336.765ZM519.34 336.765C519.34 335.465 520.25 334.425 521.602 334.425C522.954 334.425 523.851 335.465 523.851 336.765C523.851 338.065 522.954 339.105 521.602 339.105C520.25 339.105 519.34 338.065 519.34 336.765ZM527.717 339.014C528.146 339.638 529.03 340.145 530.005 340.145C531.812 340.145 533.19 338.624 533.19 336.765C533.19 334.906 531.812 333.385 530.005 333.385C529.03 333.385 528.146 333.892 527.717 334.516V330.265H526.599V340.015H527.717V339.014ZM532.046 336.765C532.046 338.078 531.149 339.118 529.836 339.118C528.523 339.118 527.626 338.078 527.626 336.765C527.626 335.452 528.523 334.412 529.836 334.412C531.149 334.412 532.046 335.452 532.046 336.765ZM536.14 330.98C536.14 330.551 535.802 330.187 535.36 330.187C534.918 330.187 534.554 330.551 534.554 330.98C534.554 331.422 534.918 331.773 535.36 331.773C535.802 331.773 536.14 331.422 536.14 330.98ZM534.788 340.015H535.906V333.515H534.788V340.015ZM538.025 340.015H539.143V330.265H538.025V340.015ZM547.073 338.039H545.929C545.539 338.819 544.85 339.131 544.044 339.131C542.874 339.131 541.925 338.247 541.886 337.064H547.177C547.333 335.049 546.098 333.385 544.057 333.385C542.029 333.385 540.755 334.867 540.755 336.765C540.755 338.702 542.133 340.145 544.031 340.145C545.682 340.145 546.748 339.183 547.073 338.039ZM544.018 334.373C544.98 334.373 545.786 334.971 545.994 336.18H541.938C542.159 334.893 543.082 334.373 544.018 334.373ZM511.177 353.015H512.425L513.608 350.324H517.911L519.094 353.015H520.355L516.26 343.785H515.259L511.177 353.015ZM514.076 349.232L515.753 345.423L517.43 349.232H514.076ZM521.483 355.732H522.601V352.014C523.03 352.638 523.914 353.145 524.889 353.145C526.696 353.145 528.074 351.624 528.074 349.765C528.074 347.906 526.696 346.385 524.889 346.385C523.914 346.385 523.03 346.892 522.601 347.516V346.515H521.483V355.732ZM526.93 349.765C526.93 351.078 526.033 352.118 524.72 352.118C523.407 352.118 522.51 351.078 522.51 349.765C522.51 348.452 523.407 347.412 524.72 347.412C526.033 347.412 526.93 348.452 526.93 349.765ZM529.684 355.732H530.802V352.014C531.231 352.638 532.115 353.145 533.09 353.145C534.897 353.145 536.275 351.624 536.275 349.765C536.275 347.906 534.897 346.385 533.09 346.385C532.115 346.385 531.231 346.892 530.802 347.516V346.515H529.684V355.732ZM535.131 349.765C535.131 351.078 534.234 352.118 532.921 352.118C531.608 352.118 530.711 351.078 530.711 349.765C530.711 348.452 531.608 347.412 532.921 347.412C534.234 347.412 535.131 348.452 535.131 349.765ZM542.371 351.26C542.371 350.285 541.786 349.609 540.707 349.336L539.667 349.063C538.978 348.881 538.679 348.608 538.679 348.127C538.679 347.633 539.173 347.321 539.797 347.321C540.408 347.321 540.876 347.672 541.045 348.244H542.163C542.046 347.204 541.188 346.385 539.797 346.385C538.484 346.385 537.548 347.061 537.548 348.14C537.548 349.063 538.107 349.765 539.225 350.051L540.161 350.298C540.928 350.506 541.24 350.818 541.24 351.338C541.24 351.91 540.694 352.196 539.992 352.196C539.316 352.196 538.64 351.923 538.484 351.13H537.34C537.431 352.443 538.588 353.145 539.979 353.145C541.331 353.145 542.371 352.547 542.371 351.26Z" fill="#001E2B"/>
<path opacity="0.9" d="M497.76 379.38L437.128 355.212C433.118 353.614 428.641 353.616 424.632 355.221L364.235 379.383C359.913 381.112 359.925 387.204 364.254 388.917L424.69 412.833C428.665 414.406 433.094 414.41 437.07 412.84L497.741 388.919C502.078 387.209 502.088 381.107 497.76 379.38Z" fill="#001E2B"/>
<path d="M497.76 376.38L437.128 352.212C433.118 350.614 428.641 350.616 424.632 352.221L364.235 376.383C359.913 378.112 359.925 384.204 364.254 385.917L424.69 409.833C428.665 411.406 433.094 411.41 437.07 409.84L497.741 385.919C502.078 384.209 502.088 378.107 497.76 376.38Z" fill="#A6FFEC"/>
<path d="M398.345 379.015H400.997C403.831 379.015 405.911 377.039 405.911 374.4C405.911 371.761 403.831 369.785 400.997 369.785H398.345V379.015ZM399.554 377.884V370.916H400.997C403.22 370.916 404.689 372.398 404.689 374.4C404.689 376.402 403.22 377.884 400.997 377.884H399.554ZM408.833 369.98C408.833 369.551 408.495 369.187 408.053 369.187C407.611 369.187 407.247 369.551 407.247 369.98C407.247 370.422 407.611 370.773 408.053 370.773C408.495 370.773 408.833 370.422 408.833 369.98ZM407.481 379.015H408.599V372.515H407.481V379.015ZM415.204 377.26C415.204 376.285 414.619 375.609 413.54 375.336L412.5 375.063C411.811 374.881 411.512 374.608 411.512 374.127C411.512 373.633 412.006 373.321 412.63 373.321C413.241 373.321 413.709 373.672 413.878 374.244H414.996C414.879 373.204 414.021 372.385 412.63 372.385C411.317 372.385 410.381 373.061 410.381 374.14C410.381 375.063 410.94 375.765 412.058 376.051L412.994 376.298C413.761 376.506 414.073 376.818 414.073 377.338C414.073 377.91 413.527 378.196 412.825 378.196C412.149 378.196 411.473 377.923 411.317 377.13H410.173C410.264 378.443 411.421 379.145 412.812 379.145C414.164 379.145 415.204 378.547 415.204 377.26ZM420.208 378.924V377.923C420 378.001 419.688 378.053 419.415 378.053C418.713 378.053 418.336 377.78 418.336 376.948V373.542H420.208V372.515H418.336V370.708H417.218V372.515H415.84V373.542H417.218V377.091C417.218 378.443 418.076 379.08 419.207 379.08C419.61 379.08 419.935 379.015 420.208 378.924ZM421.636 379.015H422.754V375.791C422.754 374.27 423.651 373.555 424.47 373.555C424.691 373.555 424.873 373.581 425.081 373.659V372.502C424.899 372.463 424.743 372.45 424.574 372.45C423.82 372.45 423.014 372.944 422.754 373.776V372.515H421.636V379.015ZM427.749 369.98C427.749 369.551 427.411 369.187 426.969 369.187C426.527 369.187 426.163 369.551 426.163 369.98C426.163 370.422 426.527 370.773 426.969 370.773C427.411 370.773 427.749 370.422 427.749 369.98ZM426.397 379.015H427.515V372.515H426.397V379.015ZM430.753 378.014C431.182 378.638 432.066 379.145 433.041 379.145C434.848 379.145 436.226 377.624 436.226 375.765C436.226 373.906 434.848 372.385 433.041 372.385C432.066 372.385 431.182 372.892 430.753 373.516V369.265H429.635V379.015H430.753V378.014ZM435.082 375.765C435.082 377.078 434.185 378.118 432.872 378.118C431.559 378.118 430.662 377.078 430.662 375.765C430.662 374.452 431.559 373.412 432.872 373.412C434.185 373.412 435.082 374.452 435.082 375.765ZM437.732 376.506C437.732 378.118 438.694 379.145 440.124 379.145C440.943 379.145 441.697 378.768 442.126 378.014V379.015H443.244V372.515H442.126V375.739C442.126 377.234 441.333 378.118 440.319 378.118C439.422 378.118 438.85 377.429 438.85 376.337V372.515H437.732V376.506ZM448.874 378.924V377.923C448.666 378.001 448.354 378.053 448.081 378.053C447.379 378.053 447.002 377.78 447.002 376.948V373.542H448.874V372.515H447.002V370.708H445.884V372.515H444.506V373.542H445.884V377.091C445.884 378.443 446.742 379.08 447.873 379.08C448.276 379.08 448.601 379.015 448.874 378.924ZM456.025 377.039H454.881C454.491 377.819 453.802 378.131 452.996 378.131C451.826 378.131 450.877 377.247 450.838 376.064H456.129C456.285 374.049 455.05 372.385 453.009 372.385C450.981 372.385 449.707 373.867 449.707 375.765C449.707 377.702 451.085 379.145 452.983 379.145C454.634 379.145 455.7 378.183 456.025 377.039ZM452.97 373.373C453.932 373.373 454.738 373.971 454.946 375.18H450.89C451.111 373.893 452.034 373.373 452.97 373.373ZM457.235 375.765C457.235 377.624 458.6 379.145 460.42 379.145C461.395 379.145 462.279 378.638 462.708 378.014V379.015H463.826V369.265H462.708V373.516C462.279 372.892 461.395 372.385 460.42 372.385C458.6 372.385 457.235 373.906 457.235 375.765ZM462.799 375.765C462.799 377.078 461.902 378.118 460.589 378.118C459.276 378.118 458.366 377.078 458.366 375.765C458.366 374.452 459.276 373.412 460.589 373.412C461.902 373.412 462.799 374.452 462.799 375.765ZM415.177 392.015H416.425L417.608 389.324H421.911L423.094 392.015H424.355L420.26 382.785H419.259L415.177 392.015ZM418.076 388.232L419.753 384.423L421.43 388.232H418.076ZM425.483 394.732H426.601V391.014C427.03 391.638 427.914 392.145 428.889 392.145C430.696 392.145 432.074 390.624 432.074 388.765C432.074 386.906 430.696 385.385 428.889 385.385C427.914 385.385 427.03 385.892 426.601 386.516V385.515H425.483V394.732ZM430.93 388.765C430.93 390.078 430.033 391.118 428.72 391.118C427.407 391.118 426.51 390.078 426.51 388.765C426.51 387.452 427.407 386.412 428.72 386.412C430.033 386.412 430.93 387.452 430.93 388.765ZM433.684 394.732H434.802V391.014C435.231 391.638 436.115 392.145 437.09 392.145C438.897 392.145 440.275 390.624 440.275 388.765C440.275 386.906 438.897 385.385 437.09 385.385C436.115 385.385 435.231 385.892 434.802 386.516V385.515H433.684V394.732ZM439.131 388.765C439.131 390.078 438.234 391.118 436.921 391.118C435.608 391.118 434.711 390.078 434.711 388.765C434.711 387.452 435.608 386.412 436.921 386.412C438.234 386.412 439.131 387.452 439.131 388.765ZM446.371 390.26C446.371 389.285 445.786 388.609 444.707 388.336L443.667 388.063C442.978 387.881 442.679 387.608 442.679 387.127C442.679 386.633 443.173 386.321 443.797 386.321C444.408 386.321 444.876 386.672 445.045 387.244H446.163C446.046 386.204 445.188 385.385 443.797 385.385C442.484 385.385 441.548 386.061 441.548 387.14C441.548 388.063 442.107 388.765 443.225 389.051L444.161 389.298C444.928 389.506 445.24 389.818 445.24 390.338C445.24 390.91 444.694 391.196 443.992 391.196C443.316 391.196 442.64 390.923 442.484 390.13H441.34C441.431 391.443 442.588 392.145 443.979 392.145C445.331 392.145 446.371 391.547 446.371 390.26Z" fill="#001E2B"/>
<g opacity="0.1">
<path opacity="0.9" d="M152.575 125.999L327.337 55.3291C338.897 50.6551 351.801 50.6601 363.356 55.3541L537.444 126.009C549.901 131.063 549.866 148.878 537.389 153.887L363.188 223.821C351.731 228.42 338.967 228.43 327.506 223.841L152.63 153.892C140.128 148.893 140.098 131.048 152.575 125.999Z" fill="#001E2B"/>
<path opacity="0.9" d="M127.15 207.422L180.338 186.221C183.857 184.819 187.784 184.82 191.301 186.229L244.284 207.425C248.075 208.941 248.064 214.286 244.267 215.789L191.249 236.769C187.763 238.148 183.878 238.151 180.39 236.775L127.167 215.79C123.362 214.29 123.353 208.937 127.15 207.422Z" fill="#001E2B"/>
<path opacity="0.9" d="M211.207 241.632L264.395 220.431C267.913 219.029 271.841 219.03 275.357 220.438L328.34 241.635C332.132 243.151 332.121 248.495 328.324 249.998L275.306 270.978C271.819 272.358 267.934 272.361 264.446 270.984L211.223 250C207.418 248.5 207.409 243.146 211.207 241.632Z" fill="#001E2B"/>
<path opacity="0.9" d="M563.063 207.422L509.875 186.221C506.356 184.819 502.429 184.82 498.912 186.229L445.929 207.425C442.138 208.941 442.148 214.286 445.946 215.789L498.963 236.769C502.45 238.148 506.335 238.151 509.823 236.775L563.046 215.79C566.851 214.29 566.86 208.937 563.063 207.422Z" fill="#001E2B"/>
<path opacity="0.9" d="M479.007 241.632L425.819 220.431C422.301 219.029 418.373 219.03 414.857 220.438L361.874 241.635C358.082 243.151 358.093 248.495 361.89 249.998L414.908 270.978C418.394 272.358 422.279 272.361 425.768 270.984L478.99 250C482.795 248.5 482.804 243.146 479.007 241.632Z" fill="#001E2B"/>
</g>
<path opacity="0.9" d="M152.575 109.165L327.337 38.4956C338.897 33.8217 351.801 33.8267 363.356 38.5206L537.444 109.175C549.901 114.229 549.866 132.044 537.389 137.054L363.188 206.988C351.731 211.587 338.967 211.597 327.506 207.008L152.63 137.059C140.128 132.059 140.098 114.214 152.575 109.165Z" fill="#001E2B"/>
<path d="M152.575 106.17L327.337 35.5005C338.897 30.8265 351.801 30.8315 363.356 35.5255L537.444 106.18C549.901 111.234 549.866 129.049 537.389 134.059L363.188 203.993C351.731 208.591 338.967 208.601 327.506 204.013L152.63 134.064C140.128 129.064 140.098 111.219 152.575 106.17Z" fill="#00ED64"/>
<path d="M278.22 128.271H281.892C285.816 128.271 288.696 125.535 288.696 121.881C288.696 118.227 285.816 115.491 281.892 115.491H278.22V128.271ZM279.894 126.705V117.057H281.892C284.97 117.057 287.004 119.109 287.004 121.881C287.004 124.653 284.97 126.705 281.892 126.705H279.894ZM299.653 123.771C299.653 121.179 297.655 119.091 294.955 119.091C292.237 119.091 290.239 121.179 290.239 123.771C290.239 126.363 292.237 128.451 294.955 128.451C297.655 128.451 299.653 126.363 299.653 123.771ZM291.823 123.771C291.823 121.971 293.083 120.531 294.955 120.531C296.827 120.531 298.069 121.971 298.069 123.771C298.069 125.571 296.827 127.011 294.955 127.011C293.083 127.011 291.823 125.571 291.823 123.771ZM310.407 125.103H308.751C308.355 126.237 307.275 127.029 305.871 127.029C303.999 127.029 302.739 125.589 302.739 123.771C302.739 121.953 303.999 120.513 305.871 120.513C307.275 120.513 308.355 121.305 308.751 122.439H310.407C309.903 120.495 308.139 119.091 305.871 119.091C303.135 119.091 301.173 121.197 301.173 123.771C301.173 126.345 303.135 128.451 305.871 128.451C308.139 128.451 309.903 127.047 310.407 125.103ZM312.331 124.797C312.331 127.029 313.663 128.451 315.643 128.451C316.777 128.451 317.821 127.929 318.415 126.885V128.271H319.963V119.271H318.415V123.735C318.415 125.805 317.317 127.029 315.913 127.029C314.671 127.029 313.879 126.075 313.879 124.563V119.271H312.331V124.797ZM322.881 128.271H324.429V123.807C324.429 121.773 325.455 120.513 326.913 120.513C328.083 120.513 328.677 121.521 328.677 122.979V128.271H330.225V123.807C330.225 121.773 331.233 120.513 332.691 120.513C333.861 120.513 334.473 121.521 334.473 122.979V128.271H336.021V122.745C336.021 120.549 334.833 119.091 332.871 119.091C331.539 119.091 330.405 119.829 329.919 121.017C329.469 119.829 328.497 119.091 327.147 119.091C325.941 119.091 324.951 119.703 324.429 120.657V119.271H322.881V128.271ZM346.853 125.535H345.269C344.729 126.615 343.775 127.047 342.659 127.047C341.039 127.047 339.725 125.823 339.671 124.185H346.997C347.213 121.395 345.503 119.091 342.677 119.091C339.869 119.091 338.105 121.143 338.105 123.771C338.105 126.453 340.013 128.451 342.641 128.451C344.927 128.451 346.403 127.119 346.853 125.535ZM342.623 120.459C343.955 120.459 345.071 121.287 345.359 122.961H339.743C340.049 121.179 341.327 120.459 342.623 120.459ZM349.231 128.271H350.779V123.807C350.779 121.701 351.931 120.513 353.389 120.513C354.649 120.513 355.513 121.449 355.513 122.961V128.271H357.043V122.727C357.043 120.495 355.657 119.091 353.641 119.091C352.471 119.091 351.391 119.595 350.779 120.657V119.271H349.231V128.271ZM364.603 128.145V126.759C364.315 126.867 363.883 126.939 363.505 126.939C362.533 126.939 362.011 126.561 362.011 125.409V120.693H364.603V119.271H362.011V116.769H360.463V119.271H358.555V120.693H360.463V125.607C360.463 127.479 361.651 128.361 363.217 128.361C363.775 128.361 364.225 128.271 364.603 128.145ZM377.438 124.527L382.046 118.335V128.271H383.702V115.491H382.19L377.438 121.863L372.686 115.491H371.156V128.271H372.83V118.335L377.438 124.527ZM395.401 123.771C395.401 121.179 393.403 119.091 390.703 119.091C387.985 119.091 385.987 121.179 385.987 123.771C385.987 126.363 387.985 128.451 390.703 128.451C393.403 128.451 395.401 126.363 395.401 123.771ZM387.571 123.771C387.571 121.971 388.831 120.531 390.703 120.531C392.575 120.531 393.817 121.971 393.817 123.771C393.817 125.571 392.575 127.011 390.703 127.011C388.831 127.011 387.571 125.571 387.571 123.771ZM396.921 123.771C396.921 126.345 398.811 128.451 401.331 128.451C402.681 128.451 403.905 127.749 404.499 126.885V128.271H406.047V114.771H404.499V120.657C403.905 119.793 402.681 119.091 401.331 119.091C398.811 119.091 396.921 121.197 396.921 123.771ZM404.625 123.771C404.625 125.589 403.383 127.029 401.565 127.029C399.747 127.029 398.487 125.589 398.487 123.771C398.487 121.953 399.747 120.513 401.565 120.513C403.383 120.513 404.625 121.953 404.625 123.771ZM417.007 125.535H415.423C414.883 126.615 413.929 127.047 412.813 127.047C411.193 127.047 409.879 125.823 409.825 124.185H417.151C417.367 121.395 415.657 119.091 412.831 119.091C410.023 119.091 408.259 121.143 408.259 123.771C408.259 126.453 410.167 128.451 412.795 128.451C415.081 128.451 416.557 127.119 417.007 125.535ZM412.777 120.459C414.109 120.459 415.225 121.287 415.513 122.961H409.897C410.203 121.179 411.481 120.459 412.777 120.459ZM419.385 128.271H420.933V114.771H419.385V128.271Z" fill="#001E2B"/>
<path opacity="0.9" d="M45.1952 157.256L98.3833 136.055C101.902 134.653 105.829 134.655 109.346 136.063L162.329 157.259C166.12 158.775 166.109 164.12 162.312 165.623L109.294 186.603C105.808 187.983 101.923 187.986 98.4346 186.609L45.2117 165.624C41.4068 164.124 41.3977 158.771 45.1952 157.256Z" fill="#001E2B"/>
<path d="M45.1952 154.256L98.3833 133.056C101.902 131.653 105.829 131.655 109.346 133.063L162.329 154.259C166.12 155.776 166.109 161.12 162.312 162.623L109.294 183.603C105.808 184.983 101.923 184.986 98.4346 183.609L45.2117 162.624C41.4068 161.125 41.3977 155.771 45.1952 154.256Z" fill="#00ED64"/>
<path d="M75.7457 158.015H76.9417V153.621L81.8427 158.015H83.5457L78.1637 153.179L82.5447 148.785H80.9717L76.9417 152.789V148.785H75.7457V158.015ZM89.6651 156.039H88.5211C88.1311 156.819 87.4421 157.131 86.6361 157.131C85.4661 157.131 84.5171 156.247 84.4781 155.064H89.7691C89.9251 153.049 88.6901 151.385 86.6491 151.385C84.6211 151.385 83.3471 152.867 83.3471 154.765C83.3471 156.702 84.7251 158.145 86.6231 158.145C88.2741 158.145 89.3401 157.183 89.6651 156.039ZM86.6101 152.373C87.5721 152.373 88.3781 152.971 88.5861 154.18H84.5301C84.7511 152.893 85.6741 152.373 86.6101 152.373ZM92.9971 160.732L97.2611 151.515H96.0131L93.7901 156.442L91.5541 151.515H90.3191L93.1661 157.677L91.7491 160.732H92.9971ZM102.957 158.015H103.893L106.896 151.515H105.648L103.425 156.429L101.202 151.515H99.9543L102.957 158.015ZM107.392 154.765C107.392 156.624 108.757 158.145 110.577 158.145C111.552 158.145 112.436 157.638 112.865 157.014V158.015H113.983V151.515H112.865V152.516C112.436 151.892 111.552 151.385 110.577 151.385C108.757 151.385 107.392 152.906 107.392 154.765ZM112.956 154.765C112.956 156.078 112.059 157.118 110.746 157.118C109.433 157.118 108.523 156.078 108.523 154.765C108.523 153.452 109.433 152.412 110.746 152.412C112.059 152.412 112.956 153.452 112.956 154.765ZM116.087 158.015H117.205V148.265H116.087V158.015ZM119.234 155.506C119.234 157.118 120.196 158.145 121.626 158.145C122.445 158.145 123.199 157.768 123.628 157.014V158.015H124.746V151.515H123.628V154.739C123.628 156.234 122.835 157.118 121.821 157.118C120.924 157.118 120.352 156.429 120.352 155.337V151.515H119.234V155.506ZM132.664 156.039H131.52C131.13 156.819 130.441 157.131 129.635 157.131C128.465 157.131 127.516 156.247 127.477 155.064H132.768C132.924 153.049 131.689 151.385 129.648 151.385C127.62 151.385 126.346 152.867 126.346 154.765C126.346 156.702 127.724 158.145 129.622 158.145C131.273 158.145 132.339 157.183 132.664 156.039ZM129.609 152.373C130.571 152.373 131.377 152.971 131.585 154.18H127.529C127.75 152.893 128.673 152.373 129.609 152.373ZM89.8082 173.732H90.9262V170.014C91.3552 170.638 92.2392 171.145 93.2142 171.145C95.0212 171.145 96.3992 169.624 96.3992 167.765C96.3992 165.906 95.0212 164.385 93.2142 164.385C92.2392 164.385 91.3552 164.892 90.9262 165.516V164.515H89.8082V173.732ZM95.2552 167.765C95.2552 169.078 94.3582 170.118 93.0452 170.118C91.7322 170.118 90.8352 169.078 90.8352 167.765C90.8352 166.452 91.7322 165.412 93.0452 165.412C94.3582 165.412 95.2552 166.452 95.2552 167.765ZM97.5023 167.765C97.5023 169.624 98.8673 171.145 100.687 171.145C101.662 171.145 102.546 170.638 102.975 170.014V171.015H104.093V164.515H102.975V165.516C102.546 164.892 101.662 164.385 100.687 164.385C98.8673 164.385 97.5023 165.906 97.5023 167.765ZM103.066 167.765C103.066 169.078 102.169 170.118 100.856 170.118C99.5433 170.118 98.6333 169.078 98.6333 167.765C98.6333 166.452 99.5433 165.412 100.856 165.412C102.169 165.412 103.066 166.452 103.066 167.765ZM107.55 161.98C107.55 161.551 107.212 161.187 106.77 161.187C106.328 161.187 105.964 161.551 105.964 161.98C105.964 162.422 106.328 162.773 106.77 162.773C107.212 162.773 107.55 162.422 107.55 161.98ZM106.198 171.015H107.316V164.515H106.198V171.015ZM109.435 171.015H110.553V167.791C110.553 166.27 111.45 165.555 112.269 165.555C112.49 165.555 112.672 165.581 112.88 165.659V164.502C112.698 164.463 112.542 164.45 112.373 164.45C111.619 164.45 110.813 164.944 110.553 165.776V164.515H109.435V171.015ZM118.567 169.26C118.567 168.285 117.982 167.609 116.903 167.336L115.863 167.063C115.174 166.881 114.875 166.608 114.875 166.127C114.875 165.633 115.369 165.321 115.993 165.321C116.604 165.321 117.072 165.672 117.241 166.244H118.359C118.242 165.204 117.384 164.385 115.993 164.385C114.68 164.385 113.744 165.061 113.744 166.14C113.744 167.063 114.303 167.765 115.421 168.051L116.357 168.298C117.124 168.506 117.436 168.818 117.436 169.338C117.436 169.91 116.89 170.196 116.188 170.196C115.512 170.196 114.836 169.923 114.68 169.13H113.536C113.627 170.443 114.784 171.145 116.175 171.145C117.527 171.145 118.567 170.547 118.567 169.26Z" fill="#001E2B"/>
<path opacity="0.9" d="M127.15 190.596L180.338 169.395C183.857 167.993 187.784 167.995 191.301 169.403L244.284 190.599C248.075 192.115 248.064 197.46 244.267 198.963L191.249 219.943C187.763 221.323 183.878 221.326 180.39 219.949L127.167 198.964C123.362 197.464 123.353 192.111 127.15 190.596Z" fill="#001E2B"/>
<path d="M127.15 187.591L180.338 166.39C183.857 164.988 187.784 164.99 191.301 166.398L244.284 187.594C248.075 189.111 248.064 194.455 244.267 195.958L191.249 216.938C187.763 218.318 183.878 218.321 180.39 216.944L127.167 195.959C123.362 194.46 123.353 189.106 127.15 187.591Z" fill="#00ED64"/>
<path d="M164.365 192.4C164.365 195.091 166.445 197.171 169.149 197.171C171.84 197.171 174.037 195.104 173.777 191.737H169.097V192.868H172.542C172.373 194.688 171.047 196.027 169.149 196.027C167.095 196.027 165.574 194.441 165.574 192.4C165.574 190.359 167.095 188.773 169.149 188.773C170.54 188.773 171.684 189.514 172.178 190.515H173.517C172.997 188.981 171.333 187.629 169.149 187.629C166.445 187.629 164.365 189.709 164.365 192.4ZM175.37 197.015H176.488V193.791C176.488 192.27 177.385 191.555 178.204 191.555C178.425 191.555 178.607 191.581 178.815 191.659V190.502C178.633 190.463 178.477 190.45 178.308 190.45C177.554 190.45 176.748 190.944 176.488 191.776V190.515H175.37V197.015ZM179.408 193.765C179.408 195.624 180.773 197.145 182.593 197.145C183.568 197.145 184.452 196.638 184.881 196.014V197.015H185.999V190.515H184.881V191.516C184.452 190.892 183.568 190.385 182.593 190.385C180.773 190.385 179.408 191.906 179.408 193.765ZM184.972 193.765C184.972 195.078 184.075 196.118 182.762 196.118C181.449 196.118 180.539 195.078 180.539 193.765C180.539 192.452 181.449 191.412 182.762 191.412C184.075 191.412 184.972 192.452 184.972 193.765ZM188.104 199.732H189.222V196.014C189.651 196.638 190.535 197.145 191.51 197.145C193.317 197.145 194.695 195.624 194.695 193.765C194.695 191.906 193.317 190.385 191.51 190.385C190.535 190.385 189.651 190.892 189.222 191.516V190.515H188.104V199.732ZM193.551 193.765C193.551 195.078 192.654 196.118 191.341 196.118C190.028 196.118 189.131 195.078 189.131 193.765C189.131 192.452 190.028 191.412 191.341 191.412C192.654 191.412 193.551 192.452 193.551 193.765ZM196.305 197.015H197.423V193.791C197.423 192.27 198.255 191.412 199.308 191.412C200.218 191.412 200.842 192.088 200.842 193.18V197.015H201.947V193.011C201.947 191.399 200.946 190.385 199.49 190.385C198.645 190.385 197.865 190.749 197.423 191.516V187.265H196.305V197.015ZM208.445 195.26C208.445 194.285 207.86 193.609 206.781 193.336L205.741 193.063C205.052 192.881 204.753 192.608 204.753 192.127C204.753 191.633 205.247 191.321 205.871 191.321C206.482 191.321 206.95 191.672 207.119 192.244H208.237C208.12 191.204 207.262 190.385 205.871 190.385C204.558 190.385 203.622 191.061 203.622 192.14C203.622 193.063 204.181 193.765 205.299 194.051L206.235 194.298C207.002 194.506 207.314 194.818 207.314 195.338C207.314 195.91 206.768 196.196 206.066 196.196C205.39 196.196 204.714 195.923 204.558 195.13H203.414C203.505 196.443 204.662 197.145 206.053 197.145C207.405 197.145 208.445 196.547 208.445 195.26Z" fill="#001E2B"/>
<path opacity="0.9" d="M211.207 224.806L264.395 203.605C267.913 202.203 271.841 202.205 275.357 203.613L328.34 224.809C332.132 226.325 332.121 231.67 328.324 233.173L275.306 254.153C271.819 255.533 267.934 255.536 264.446 254.159L211.223 233.174C207.418 231.674 207.409 226.321 211.207 224.806Z" fill="#001E2B"/>
<path d="M211.207 221.804L264.395 200.603C267.913 199.201 271.841 199.202 275.357 200.611L328.34 221.807C332.132 223.323 332.121 228.668 328.324 230.17L275.306 251.151C271.819 252.53 267.934 252.533 264.446 251.157L211.223 230.172C207.418 228.672 207.409 223.319 211.207 221.804Z" fill="#00ED64"/>
<path d="M230.095 230.85H231.304V226.651H232.201L235.75 230.85H237.271L233.722 226.638C235.139 226.43 235.997 225.52 235.997 224.168C235.997 222.647 234.944 221.62 233.241 221.62H230.095V230.85ZM231.304 225.572V222.738H233.098C234.151 222.738 234.788 223.232 234.788 224.168C234.788 225.091 234.151 225.572 233.098 225.572H231.304ZM243.798 228.874H242.654C242.264 229.654 241.575 229.966 240.769 229.966C239.599 229.966 238.65 229.082 238.611 227.899H243.902C244.058 225.884 242.823 224.22 240.782 224.22C238.754 224.22 237.48 225.702 237.48 227.6C237.48 229.537 238.858 230.98 240.756 230.98C242.407 230.98 243.473 230.018 243.798 228.874ZM240.743 225.208C241.705 225.208 242.511 225.806 242.719 227.015H238.663C238.884 225.728 239.807 225.208 240.743 225.208ZM245.516 230.85H246.634V221.1H245.516V230.85ZM248.246 227.6C248.246 229.459 249.611 230.98 251.431 230.98C252.406 230.98 253.29 230.473 253.719 229.849V230.85H254.837V224.35H253.719V225.351C253.29 224.727 252.406 224.22 251.431 224.22C249.611 224.22 248.246 225.741 248.246 227.6ZM253.81 227.6C253.81 228.913 252.913 229.953 251.6 229.953C250.287 229.953 249.377 228.913 249.377 227.6C249.377 226.287 250.287 225.247 251.6 225.247C252.913 225.247 253.81 226.287 253.81 227.6ZM260.464 230.759V229.758C260.256 229.836 259.944 229.888 259.671 229.888C258.969 229.888 258.592 229.615 258.592 228.783V225.377H260.464V224.35H258.592V222.543H257.474V224.35H256.096V225.377H257.474V228.926C257.474 230.278 258.332 230.915 259.463 230.915C259.866 230.915 260.191 230.85 260.464 230.759ZM263.245 221.815C263.245 221.386 262.907 221.022 262.465 221.022C262.023 221.022 261.659 221.386 261.659 221.815C261.659 222.257 262.023 222.608 262.465 222.608C262.907 222.608 263.245 222.257 263.245 221.815ZM261.893 230.85H263.011V224.35H261.893V230.85ZM271.409 227.6C271.409 225.728 269.966 224.22 268.016 224.22C266.053 224.22 264.61 225.728 264.61 227.6C264.61 229.472 266.053 230.98 268.016 230.98C269.966 230.98 271.409 229.472 271.409 227.6ZM265.754 227.6C265.754 226.3 266.664 225.26 268.016 225.26C269.368 225.26 270.265 226.3 270.265 227.6C270.265 228.9 269.368 229.94 268.016 229.94C266.664 229.94 265.754 228.9 265.754 227.6ZM273.014 230.85H274.132V227.626C274.132 226.105 274.964 225.247 276.017 225.247C276.927 225.247 277.551 225.923 277.551 227.015V230.85H278.656V226.846C278.656 225.234 277.655 224.22 276.199 224.22C275.354 224.22 274.574 224.584 274.132 225.351V224.35H273.014V230.85ZM285.154 229.095C285.154 228.12 284.569 227.444 283.49 227.171L282.45 226.898C281.761 226.716 281.462 226.443 281.462 225.962C281.462 225.468 281.956 225.156 282.58 225.156C283.191 225.156 283.659 225.507 283.828 226.079H284.946C284.829 225.039 283.971 224.22 282.58 224.22C281.267 224.22 280.331 224.896 280.331 225.975C280.331 226.898 280.89 227.6 282.008 227.886L282.944 228.133C283.711 228.341 284.023 228.653 284.023 229.173C284.023 229.745 283.477 230.031 282.775 230.031C282.099 230.031 281.423 229.758 281.267 228.965H280.123C280.214 230.278 281.371 230.98 282.762 230.98C284.114 230.98 285.154 230.382 285.154 229.095ZM286.737 230.85H287.855V227.626C287.855 226.105 288.687 225.247 289.74 225.247C290.65 225.247 291.274 225.923 291.274 227.015V230.85H292.379V226.846C292.379 225.234 291.378 224.22 289.922 224.22C289.077 224.22 288.297 224.584 287.855 225.351V221.1H286.737V230.85ZM295.745 221.815C295.745 221.386 295.407 221.022 294.965 221.022C294.523 221.022 294.159 221.386 294.159 221.815C294.159 222.257 294.523 222.608 294.965 222.608C295.407 222.608 295.745 222.257 295.745 221.815ZM294.393 230.85H295.511V224.35H294.393V230.85ZM297.63 233.567H298.748V229.849C299.177 230.473 300.061 230.98 301.036 230.98C302.843 230.98 304.221 229.459 304.221 227.6C304.221 225.741 302.843 224.22 301.036 224.22C300.061 224.22 299.177 224.727 298.748 225.351V224.35H297.63V233.567ZM303.077 227.6C303.077 228.913 302.18 229.953 300.867 229.953C299.554 229.953 298.657 228.913 298.657 227.6C298.657 226.287 299.554 225.247 300.867 225.247C302.18 225.247 303.077 226.287 303.077 227.6ZM310.316 229.095C310.316 228.12 309.731 227.444 308.652 227.171L307.612 226.898C306.923 226.716 306.624 226.443 306.624 225.962C306.624 225.468 307.118 225.156 307.742 225.156C308.353 225.156 308.821 225.507 308.99 226.079H310.108C309.991 225.039 309.133 224.22 307.742 224.22C306.429 224.22 305.493 224.896 305.493 225.975C305.493 226.898 306.052 227.6 307.17 227.886L308.106 228.133C308.873 228.341 309.185 228.653 309.185 229.173C309.185 229.745 308.639 230.031 307.937 230.031C307.261 230.031 306.585 229.758 306.429 228.965H305.285C305.376 230.278 306.533 230.98 307.924 230.98C309.276 230.98 310.316 230.382 310.316 229.095Z" fill="#001E2B"/>
<path opacity="0.9" d="M644.805 157.256L591.617 136.055C588.098 134.653 584.171 134.655 580.654 136.063L527.671 157.259C523.88 158.775 523.891 164.12 527.688 165.623L580.706 186.603C584.192 187.983 588.077 187.986 591.565 186.609L644.788 165.624C648.593 164.124 648.602 158.771 644.805 157.256Z" fill="#001E2B"/>
<path d="M644.805 154.256L591.617 133.056C588.098 131.653 584.171 131.655 580.654 133.063L527.671 154.259C523.88 155.776 523.891 161.12 527.688 162.623L580.706 183.603C584.192 184.983 588.077 184.986 591.565 183.609L644.788 162.624C648.593 161.125 648.602 155.771 644.805 154.256Z" fill="#00ED64"/>
<path d="M572.017 158.4C572.017 155.722 569.911 153.629 567.246 153.629C564.594 153.629 562.475 155.722 562.475 158.4C562.475 161.078 564.594 163.171 567.246 163.171C569.911 163.171 572.017 161.078 572.017 158.4ZM563.697 158.4C563.697 156.372 565.231 154.773 567.246 154.773C569.274 154.773 570.808 156.372 570.808 158.4C570.808 160.428 569.274 162.027 567.246 162.027C565.231 162.027 563.697 160.428 563.697 158.4ZM574.776 162.014C575.205 162.638 576.089 163.145 577.064 163.145C578.871 163.145 580.249 161.624 580.249 159.765C580.249 157.906 578.871 156.385 577.064 156.385C576.089 156.385 575.205 156.892 574.776 157.516V153.265H573.658V163.015H574.776V162.014ZM579.105 159.765C579.105 161.078 578.208 162.118 576.895 162.118C575.582 162.118 574.685 161.078 574.685 159.765C574.685 158.452 575.582 157.412 576.895 157.412C578.208 157.412 579.105 158.452 579.105 159.765ZM583.302 153.98C583.302 153.551 582.964 153.187 582.522 153.187C582.08 153.187 581.716 153.551 581.716 153.98C581.716 154.422 582.08 154.773 582.522 154.773C582.964 154.773 583.302 154.422 583.302 153.98ZM583.068 156.515H581.95V163.743C581.95 164.575 581.56 164.848 580.949 164.848C580.793 164.848 580.676 164.835 580.572 164.822V165.823C580.728 165.849 580.91 165.862 581.105 165.862C582.21 165.862 583.068 165.225 583.068 163.873V156.515ZM590.996 161.039H589.852C589.462 161.819 588.773 162.131 587.967 162.131C586.797 162.131 585.848 161.247 585.809 160.064H591.1C591.256 158.049 590.021 156.385 587.98 156.385C585.952 156.385 584.678 157.867 584.678 159.765C584.678 161.702 586.056 163.145 587.954 163.145C589.605 163.145 590.671 162.183 590.996 161.039ZM587.941 157.373C588.903 157.373 589.709 157.971 589.917 159.18H585.861C586.082 157.893 587.005 157.373 587.941 157.373ZM598.875 160.727H597.679C597.393 161.546 596.613 162.118 595.599 162.118C594.247 162.118 593.337 161.078 593.337 159.765C593.337 158.452 594.247 157.412 595.599 157.412C596.613 157.412 597.393 157.984 597.679 158.803H598.875C598.511 157.399 597.237 156.385 595.599 156.385C593.623 156.385 592.206 157.906 592.206 159.765C592.206 161.624 593.623 163.145 595.599 163.145C597.237 163.145 598.511 162.131 598.875 160.727ZM603.816 162.924V161.923C603.608 162.001 603.296 162.053 603.023 162.053C602.321 162.053 601.944 161.78 601.944 160.948V157.542H603.816V156.515H601.944V154.708H600.826V156.515H599.448V157.542H600.826V161.091C600.826 162.443 601.684 163.08 602.815 163.08C603.218 163.08 603.543 163.015 603.816 162.924ZM609.729 161.26C609.729 160.285 609.144 159.609 608.065 159.336L607.025 159.063C606.336 158.881 606.037 158.608 606.037 158.127C606.037 157.633 606.531 157.321 607.155 157.321C607.766 157.321 608.234 157.672 608.403 158.244H609.521C609.404 157.204 608.546 156.385 607.155 156.385C605.842 156.385 604.906 157.061 604.906 158.14C604.906 159.063 605.465 159.765 606.583 160.051L607.519 160.298C608.286 160.506 608.598 160.818 608.598 161.338C608.598 161.91 608.052 162.196 607.35 162.196C606.674 162.196 605.998 161.923 605.842 161.13H604.698C604.789 162.443 605.946 163.145 607.337 163.145C608.689 163.145 609.729 162.547 609.729 161.26Z" fill="#001E2B"/>
<path opacity="0.9" d="M563.063 190.596L509.875 169.395C506.356 167.993 502.429 167.995 498.912 169.403L445.929 190.599C442.138 192.115 442.148 197.46 445.946 198.963L498.963 219.943C502.45 221.323 506.335 221.326 509.823 219.949L563.046 198.964C566.851 197.464 566.86 192.111 563.063 190.596Z" fill="#001E2B"/>
<path d="M563.063 187.591L509.875 166.39C506.356 164.988 502.429 164.99 498.912 166.398L445.929 187.594C442.138 189.111 442.148 194.455 445.946 195.958L498.963 216.938C502.45 218.318 506.335 218.321 509.823 216.944L563.046 195.959C566.851 194.46 566.86 189.106 563.063 187.591Z" fill="#00ED64"/>
<path d="M473.819 196.411H475.002V188.325H477.875V187.181H470.946V188.325H473.819V196.411ZM480.43 187.376C480.43 186.947 480.092 186.583 479.65 186.583C479.208 186.583 478.844 186.947 478.844 187.376C478.844 187.818 479.208 188.169 479.65 188.169C480.092 188.169 480.43 187.818 480.43 187.376ZM479.078 196.411H480.196V189.911H479.078V196.411ZM482.315 196.411H483.433V193.187C483.433 191.718 484.174 190.808 485.227 190.808C486.072 190.808 486.501 191.536 486.501 192.589V196.411H487.619V193.187C487.619 191.718 488.347 190.808 489.4 190.808C490.245 190.808 490.687 191.536 490.687 192.589V196.411H491.805V192.42C491.805 190.834 490.947 189.781 489.53 189.781C488.568 189.781 487.749 190.314 487.398 191.172C487.073 190.314 486.371 189.781 485.396 189.781C484.525 189.781 483.81 190.223 483.433 190.912V189.911H482.315V196.411ZM499.628 194.435H498.484C498.094 195.215 497.405 195.527 496.599 195.527C495.429 195.527 494.48 194.643 494.441 193.46H499.732C499.888 191.445 498.653 189.781 496.612 189.781C494.584 189.781 493.31 191.263 493.31 193.161C493.31 195.098 494.688 196.541 496.586 196.541C498.237 196.541 499.303 195.579 499.628 194.435ZM496.573 190.769C497.535 190.769 498.341 191.367 498.549 192.576H494.493C494.714 191.289 495.637 190.769 496.573 190.769ZM508.966 194.656C508.966 193.681 508.381 193.005 507.302 192.732L506.262 192.459C505.573 192.277 505.274 192.004 505.274 191.523C505.274 191.029 505.768 190.717 506.392 190.717C507.003 190.717 507.471 191.068 507.64 191.64H508.758C508.641 190.6 507.783 189.781 506.392 189.781C505.079 189.781 504.143 190.457 504.143 191.536C504.143 192.459 504.702 193.161 505.82 193.447L506.756 193.694C507.523 193.902 507.835 194.214 507.835 194.734C507.835 195.306 507.289 195.592 506.587 195.592C505.911 195.592 505.235 195.319 505.079 194.526H503.935C504.026 195.839 505.183 196.541 506.574 196.541C507.926 196.541 508.966 195.943 508.966 194.656ZM516.36 194.435H515.216C514.826 195.215 514.137 195.527 513.331 195.527C512.161 195.527 511.212 194.643 511.173 193.46H516.464C516.62 191.445 515.385 189.781 513.344 189.781C511.316 189.781 510.042 191.263 510.042 193.161C510.042 195.098 511.42 196.541 513.318 196.541C514.969 196.541 516.035 195.579 516.36 194.435ZM513.305 190.769C514.267 190.769 515.073 191.367 515.281 192.576H511.225C511.446 191.289 512.369 190.769 513.305 190.769ZM518.078 196.411H519.196V193.187C519.196 191.666 520.093 190.951 520.912 190.951C521.133 190.951 521.315 190.977 521.523 191.055V189.898C521.341 189.859 521.185 189.846 521.016 189.846C520.262 189.846 519.456 190.34 519.196 191.172V189.911H518.078V196.411ZM524.19 187.376C524.19 186.947 523.852 186.583 523.41 186.583C522.968 186.583 522.604 186.947 522.604 187.376C522.604 187.818 522.968 188.169 523.41 188.169C523.852 188.169 524.19 187.818 524.19 187.376ZM522.838 196.411H523.956V189.911H522.838V196.411ZM531.887 194.435H530.743C530.353 195.215 529.664 195.527 528.858 195.527C527.688 195.527 526.739 194.643 526.7 193.46H531.991C532.147 191.445 530.912 189.781 528.871 189.781C526.843 189.781 525.569 191.263 525.569 193.161C525.569 195.098 526.947 196.541 528.845 196.541C530.496 196.541 531.562 195.579 531.887 194.435ZM528.832 190.769C529.794 190.769 530.6 191.367 530.808 192.576H526.752C526.973 191.289 527.896 190.769 528.832 190.769ZM538.089 194.656C538.089 193.681 537.504 193.005 536.425 192.732L535.385 192.459C534.696 192.277 534.397 192.004 534.397 191.523C534.397 191.029 534.891 190.717 535.515 190.717C536.126 190.717 536.594 191.068 536.763 191.64H537.881C537.764 190.6 536.906 189.781 535.515 189.781C534.202 189.781 533.266 190.457 533.266 191.536C533.266 192.459 533.825 193.161 534.943 193.447L535.879 193.694C536.646 193.902 536.958 194.214 536.958 194.734C536.958 195.306 536.412 195.592 535.71 195.592C535.034 195.592 534.358 195.319 534.202 194.526H533.058C533.149 195.839 534.306 196.541 535.697 196.541C537.049 196.541 538.089 195.943 538.089 194.656Z" fill="#001E2B"/>
<path opacity="0.9" d="M479.007 224.806L425.819 203.605C422.301 202.203 418.373 202.205 414.857 203.613L361.874 224.809C358.082 226.325 358.093 231.67 361.89 233.173L414.908 254.153C418.394 255.533 422.279 255.536 425.768 254.159L478.99 233.174C482.795 231.674 482.804 226.321 479.007 224.806Z" fill="#001E2B"/>
<path d="M479.007 221.804L425.819 200.603C422.301 199.201 418.373 199.202 414.857 200.611L361.874 221.807C358.082 223.323 358.093 228.668 361.89 230.17L414.908 251.151C418.394 252.53 422.279 252.533 425.768 251.157L478.99 230.172C482.795 228.672 482.804 223.319 479.007 221.804Z" fill="#00ED64"/>
<path d="M386.689 226.235C386.689 228.926 388.769 231.006 391.473 231.006C394.164 231.006 396.361 228.939 396.101 225.572H391.421V226.703H394.866C394.697 228.523 393.371 229.862 391.473 229.862C389.419 229.862 387.898 228.276 387.898 226.235C387.898 224.194 389.419 222.608 391.473 222.608C392.864 222.608 394.008 223.349 394.502 224.35H395.841C395.321 222.816 393.657 221.464 391.473 221.464C388.769 221.464 386.689 223.544 386.689 226.235ZM403.568 228.874H402.424C402.034 229.654 401.345 229.966 400.539 229.966C399.369 229.966 398.42 229.082 398.381 227.899H403.672C403.828 225.884 402.593 224.22 400.552 224.22C398.524 224.22 397.25 225.702 397.25 227.6C397.25 229.537 398.628 230.98 400.526 230.98C402.177 230.98 403.243 230.018 403.568 228.874ZM400.513 225.208C401.475 225.208 402.281 225.806 402.489 227.015H398.433C398.654 225.728 399.577 225.208 400.513 225.208ZM411.565 227.6C411.565 225.728 410.122 224.22 408.172 224.22C406.209 224.22 404.766 225.728 404.766 227.6C404.766 229.472 406.209 230.98 408.172 230.98C410.122 230.98 411.565 229.472 411.565 227.6ZM405.91 227.6C405.91 226.3 406.82 225.26 408.172 225.26C409.524 225.26 410.421 226.3 410.421 227.6C410.421 228.9 409.524 229.94 408.172 229.94C406.82 229.94 405.91 228.9 405.91 227.6ZM417.654 229.095C417.654 228.12 417.069 227.444 415.99 227.171L414.95 226.898C414.261 226.716 413.962 226.443 413.962 225.962C413.962 225.468 414.456 225.156 415.08 225.156C415.691 225.156 416.159 225.507 416.328 226.079H417.446C417.329 225.039 416.471 224.22 415.08 224.22C413.767 224.22 412.831 224.896 412.831 225.975C412.831 226.898 413.39 227.6 414.508 227.886L415.444 228.133C416.211 228.341 416.523 228.653 416.523 229.173C416.523 229.745 415.977 230.031 415.275 230.031C414.599 230.031 413.923 229.758 413.767 228.965H412.623C412.714 230.278 413.871 230.98 415.262 230.98C416.614 230.98 417.654 230.382 417.654 229.095ZM419.238 233.567H420.356V229.849C420.785 230.473 421.669 230.98 422.644 230.98C424.451 230.98 425.829 229.459 425.829 227.6C425.829 225.741 424.451 224.22 422.644 224.22C421.669 224.22 420.785 224.727 420.356 225.351V224.35H419.238V233.567ZM424.685 227.6C424.685 228.913 423.788 229.953 422.475 229.953C421.162 229.953 420.265 228.913 420.265 227.6C420.265 226.287 421.162 225.247 422.475 225.247C423.788 225.247 424.685 226.287 424.685 227.6ZM426.932 227.6C426.932 229.459 428.297 230.98 430.117 230.98C431.092 230.98 431.976 230.473 432.405 229.849V230.85H433.523V224.35H432.405V225.351C431.976 224.727 431.092 224.22 430.117 224.22C428.297 224.22 426.932 225.741 426.932 227.6ZM432.496 227.6C432.496 228.913 431.599 229.953 430.286 229.953C428.973 229.953 428.063 228.913 428.063 227.6C428.063 226.287 428.973 225.247 430.286 225.247C431.599 225.247 432.496 226.287 432.496 227.6ZM439.151 230.759V229.758C438.943 229.836 438.631 229.888 438.358 229.888C437.656 229.888 437.279 229.615 437.279 228.783V225.377H439.151V224.35H437.279V222.543H436.161V224.35H434.783V225.377H436.161V228.926C436.161 230.278 437.019 230.915 438.15 230.915C438.553 230.915 438.878 230.85 439.151 230.759ZM441.931 221.815C441.931 221.386 441.593 221.022 441.151 221.022C440.709 221.022 440.345 221.386 440.345 221.815C440.345 222.257 440.709 222.608 441.151 222.608C441.593 222.608 441.931 222.257 441.931 221.815ZM440.579 230.85H441.697V224.35H440.579V230.85ZM443.309 227.6C443.309 229.459 444.674 230.98 446.494 230.98C447.469 230.98 448.353 230.473 448.782 229.849V230.85H449.9V224.35H448.782V225.351C448.353 224.727 447.469 224.22 446.494 224.22C444.674 224.22 443.309 225.741 443.309 227.6ZM448.873 227.6C448.873 228.913 447.976 229.953 446.663 229.953C445.35 229.953 444.44 228.913 444.44 227.6C444.44 226.287 445.35 225.247 446.663 225.247C447.976 225.247 448.873 226.287 448.873 227.6ZM452.004 230.85H453.122V221.1H452.004V230.85Z" fill="#001E2B"/>
</svg>
