<svg width="696" height="468" viewBox="0 0 696 468" fill="none" xmlns="http://www.w3.org/2000/svg">
<g clip-path="url(#clip0_3298_73604)">
<path d="M478.819 111.219C509.738 142.129 515.232 188.68 495.009 224.266" stroke="black" stroke-linecap="square" stroke-linejoin="round" stroke-dasharray="2 2"/>
<path d="M520.142 195.478C525.227 161.909 514.609 126.139 488.415 99.9512" stroke="black" stroke-linecap="square" stroke-linejoin="round" stroke-dasharray="2 2"/>
<path d="M194.054 150.301C186.339 174.852 188.843 201.75 201.633 224.266" stroke="black" stroke-linecap="square" stroke-linejoin="round" stroke-dasharray="2 2"/>
<path d="M176.501 195.479C172.858 171.444 177.27 146.269 189.691 124.299" stroke="black" stroke-linecap="square" stroke-linejoin="round" stroke-dasharray="2 2"/>
<path d="M151.135 428C143.858 428 137.429 424.192 133.942 417.813C130.445 411.434 130.698 403.965 134.624 397.839L175.391 334.109C183.359 321.653 196.948 314.213 211.735 314.213H484.265C499.052 314.213 512.641 321.653 520.609 334.109L561.376 397.839C565.292 403.965 565.546 411.434 562.058 417.813C558.561 424.192 552.132 428 544.865 428H151.135Z" fill="black"/>
<path d="M564.513 389.58H131.487V409.506H564.513V389.58Z" fill="black"/>
<path d="M151.135 409.506C143.858 409.506 137.429 405.698 133.942 399.319C130.445 392.94 130.698 385.471 134.624 379.345L175.391 315.615C183.359 303.159 196.948 295.719 211.735 295.719H484.265C499.052 295.719 512.641 303.159 520.609 315.615L561.376 379.345C565.292 385.471 565.546 392.94 562.058 399.319C558.561 405.698 552.132 409.506 544.865 409.506H151.135Z" fill="white" stroke="black" stroke-linecap="round" stroke-linejoin="round"/>
<path d="M544.865 406.856H151.135C137.741 406.856 129.636 392.054 136.855 380.766L177.622 317.036C185.064 305.399 197.922 298.367 211.735 298.367H484.265C498.078 298.367 510.936 305.408 518.379 317.036L559.146 380.766C566.364 392.054 558.259 406.856 544.865 406.856Z" fill="#A6FFEC" stroke="black" stroke-linecap="round" stroke-linejoin="round"/>
<path d="M212.709 295.719C214.891 296.303 217.365 296.868 220.112 297.394C215.271 299.001 213.547 300.919 215.816 302.974L237.812 322.899C240.082 324.954 246.034 326.863 254.421 328.48C249.579 330.087 247.855 332.005 250.125 334.06L272.121 353.985L274.936 356.537C281.229 362.234 315.878 366.86 352.32 366.86C388.762 366.86 413.212 362.244 406.919 356.537L404.104 353.985L401.016 351.19L382.099 334.05C382.011 333.972 381.914 333.885 381.816 333.807C381.787 333.778 381.748 333.758 381.719 333.729C381.651 333.67 381.573 333.622 381.495 333.563C381.456 333.534 381.407 333.505 381.368 333.476C381.29 333.417 381.212 333.369 381.125 333.32C381.086 333.291 381.037 333.261 380.998 333.232C380.891 333.164 380.774 333.096 380.657 333.028C380.638 333.018 380.618 332.998 380.589 332.989C380.453 332.911 380.316 332.833 380.17 332.755C380.112 332.726 380.053 332.697 379.995 332.667C379.897 332.619 379.8 332.57 379.702 332.521C379.634 332.492 379.566 332.453 379.498 332.424C379.401 332.375 379.303 332.336 379.206 332.288C379.128 332.258 379.06 332.219 378.982 332.19C378.874 332.141 378.758 332.093 378.641 332.044C378.543 332.005 378.436 331.956 378.329 331.917C378.193 331.859 378.056 331.801 377.91 331.752C377.813 331.713 377.715 331.674 377.618 331.645C377.52 331.606 377.423 331.567 377.316 331.528C377.209 331.489 377.102 331.45 376.985 331.411C376.887 331.372 376.79 331.343 376.692 331.314C376.576 331.275 376.459 331.236 376.342 331.187C376.254 331.158 376.157 331.129 376.069 331.099C375.777 331.002 375.475 330.905 375.163 330.807L375.085 330.778C374.929 330.729 374.773 330.681 374.618 330.632C374.54 330.612 374.462 330.583 374.384 330.564C374.228 330.515 374.062 330.466 373.906 330.427C373.829 330.408 373.751 330.379 373.673 330.359C373.497 330.311 373.332 330.262 373.156 330.213C373.108 330.203 373.059 330.184 373.01 330.174C372.377 330.009 371.724 329.833 371.043 329.668C371.004 329.668 370.974 329.648 370.935 329.639C370.711 329.59 370.497 329.531 370.273 329.483C370.224 329.473 370.185 329.463 370.137 329.454C369.903 329.395 369.669 329.346 369.426 329.288C368.383 329.054 367.282 328.821 366.143 328.597H366.104C365.909 328.548 365.714 328.509 365.51 328.47C365.617 328.431 365.714 328.402 365.812 328.363L365.899 328.334C366.045 328.285 366.182 328.236 366.328 328.178L366.377 328.158C366.805 328.003 367.214 327.837 367.584 327.671C367.604 327.662 367.633 327.652 367.653 327.642C367.76 327.593 367.857 327.545 367.964 327.496C368.003 327.477 368.042 327.457 368.071 327.447C368.169 327.399 368.266 327.35 368.354 327.301C368.383 327.282 368.422 327.262 368.451 327.253C368.744 327.097 368.997 326.941 369.24 326.785C369.279 326.766 369.309 326.736 369.348 326.717C369.406 326.678 369.465 326.629 369.523 326.59C369.562 326.561 369.601 326.532 369.63 326.503C369.689 326.464 369.737 326.415 369.786 326.376C369.825 326.347 369.854 326.318 369.893 326.288C369.942 326.25 369.991 326.211 370.029 326.162C370.068 326.123 370.107 326.084 370.137 326.045C370.195 325.987 370.254 325.918 370.302 325.86C370.331 325.821 370.361 325.782 370.39 325.743C370.419 325.704 370.439 325.675 370.468 325.636C370.497 325.597 370.517 325.558 370.546 325.519C370.565 325.48 370.585 325.451 370.604 325.412C370.624 325.373 370.643 325.324 370.663 325.285C370.672 325.256 370.692 325.217 370.702 325.188C370.731 325.12 370.75 325.052 370.76 324.974C370.76 324.945 370.76 324.925 370.77 324.896C370.77 324.837 370.789 324.789 370.789 324.73C370.789 324.701 370.789 324.672 370.789 324.643C370.789 324.594 370.789 324.545 370.789 324.497C370.789 324.467 370.789 324.438 370.78 324.399C370.78 324.35 370.76 324.302 370.75 324.243C370.75 324.214 370.741 324.185 370.731 324.165C370.711 324.088 370.682 324.01 370.643 323.932L370.624 323.903C370.594 323.834 370.555 323.766 370.507 323.688C370.487 323.659 370.468 323.64 370.458 323.61C370.419 323.552 370.38 323.503 370.341 323.445C370.322 323.416 370.292 323.386 370.273 323.357C370.224 323.299 370.176 323.24 370.127 323.192C370.107 323.162 370.078 323.143 370.059 323.114C369.981 323.036 369.903 322.948 369.805 322.87L347.81 302.945C347.722 302.867 347.625 302.779 347.527 302.701C347.498 302.672 347.459 302.653 347.43 302.623C347.362 302.565 347.284 302.516 347.206 302.458C347.167 302.429 347.118 302.399 347.079 302.37C347.001 302.322 346.923 302.263 346.836 302.214C346.797 302.185 346.748 302.156 346.709 302.127C346.602 302.059 346.485 301.99 346.378 301.922C346.358 301.913 346.339 301.893 346.31 301.883C346.173 301.805 346.037 301.727 345.891 301.65C345.832 301.62 345.774 301.591 345.715 301.562C345.618 301.513 345.521 301.465 345.423 301.416C345.355 301.387 345.287 301.348 345.219 301.318C345.121 301.27 345.024 301.231 344.926 301.182C344.848 301.153 344.78 301.114 344.702 301.085C344.595 301.036 344.478 300.987 344.361 300.939C344.264 300.9 344.157 300.851 344.05 300.812C343.913 300.754 343.777 300.695 343.631 300.646C343.533 300.608 343.436 300.569 343.339 300.539C343.241 300.5 343.144 300.461 343.037 300.422C342.929 300.384 342.822 300.345 342.705 300.306C342.608 300.267 342.511 300.237 342.413 300.208C342.296 300.169 342.179 300.13 342.062 300.082C341.975 300.052 341.877 300.023 341.79 299.994C341.497 299.897 341.196 299.799 340.884 299.702C340.855 299.702 340.835 299.682 340.806 299.673C340.65 299.624 340.494 299.575 340.338 299.527C340.26 299.507 340.182 299.478 340.104 299.458C339.949 299.41 339.783 299.361 339.627 299.322C339.549 299.303 339.471 299.273 339.393 299.254C339.218 299.205 339.052 299.156 338.877 299.108L338.731 299.069C338.098 298.903 337.445 298.728 336.763 298.562L336.656 298.533C336.432 298.484 336.218 298.426 335.994 298.377C335.945 298.368 335.906 298.358 335.857 298.348C335.624 298.29 335.39 298.241 335.146 298.183C334.104 297.949 333.003 297.715 331.863 297.491H331.824C331.63 297.442 331.435 297.403 331.23 297.365C332.818 296.839 334.055 296.284 334.942 295.689H212.709V295.719Z" fill="black" stroke="black" stroke-linecap="round" stroke-linejoin="round"/>
<path d="M274.293 205.957C268.945 187.668 252.054 174.316 232.035 174.316C215.797 174.316 201.604 183.11 193.976 196.199C192.71 196.053 191.415 195.966 190.109 195.966C171.776 195.966 156.921 210.817 156.921 229.145C156.921 247.474 171.776 262.325 190.109 262.325H274.108C289.674 262.325 302.299 249.704 302.299 234.141C302.299 218.579 289.771 206.055 274.283 205.957H274.293Z" fill="black" stroke="black" stroke-linecap="round" stroke-linejoin="round"/>
<path d="M274.293 195.362C268.945 177.072 252.054 163.721 232.035 163.721C215.797 163.721 201.604 172.515 193.976 185.604C192.71 185.458 191.415 185.37 190.109 185.37C171.776 185.37 156.921 200.221 156.921 218.55C156.921 236.878 171.776 251.729 190.109 251.729H274.108C289.674 251.729 302.299 239.108 302.299 223.546C302.299 207.983 289.771 195.459 274.283 195.362H274.293Z" fill="white" stroke="black" stroke-linecap="round" stroke-linejoin="round"/>
<path d="M520.473 99.2984C520.531 98.3537 520.57 97.3993 520.57 96.4352C520.57 71.3872 500.26 51.082 475.205 51.082C455.47 51.082 438.686 63.6839 432.441 81.2818C420.781 81.9148 410.884 89.1312 406.393 99.2887C396.204 100.925 388.411 109.758 388.411 120.402C388.411 132.215 397.987 141.798 409.813 141.798H516.976C528.792 141.798 538.377 132.225 538.377 120.402C538.377 109.777 530.633 100.973 520.482 99.2984H520.473Z" fill="black" stroke="black" stroke-linecap="round" stroke-linejoin="round"/>
<path d="M520.473 88.7027C520.531 87.758 520.57 86.8036 520.57 85.8395C520.57 60.7915 500.26 40.4863 475.205 40.4863C455.47 40.4863 438.686 53.0882 432.441 70.6861C420.781 71.3191 410.884 78.5355 406.393 88.6929C396.204 90.3291 388.411 99.1621 388.411 109.806C388.411 121.62 397.987 131.202 409.813 131.202H516.976C528.792 131.202 538.377 121.629 538.377 109.806C538.377 99.1815 530.633 90.3777 520.482 88.7027H520.473Z" fill="white" stroke="black" stroke-linecap="round" stroke-linejoin="round"/>
<path d="M271.195 333.291V349.438C271.195 366.656 305.582 380.611 347.995 380.611C390.408 380.611 424.795 366.656 424.795 349.438V333.291H271.195Z" fill="black" stroke="black" stroke-linecap="round" stroke-linejoin="round"/>
<path d="M271.195 281.529V341.724C271.195 358.942 305.582 372.898 347.995 372.898C390.408 372.898 424.795 358.942 424.795 341.724V281.529C424.795 264.311 390.408 250.355 347.995 250.355C305.582 250.355 271.195 264.311 271.195 281.529Z" fill="#00ED64"/>
<path d="M424.804 281.529V341.724C424.804 358.942 390.418 372.898 348.005 372.898C305.592 372.898 271.205 358.942 271.205 341.724V281.529" stroke="black" stroke-linecap="round" stroke-linejoin="round"/>
<path d="M424.804 312.285C424.804 329.503 390.418 343.459 348.005 343.459C305.592 343.459 271.205 329.503 271.205 312.285" stroke="black" stroke-linecap="round" stroke-linejoin="round"/>
<path d="M409.852 263.045V360.208C419.242 355.037 424.804 348.648 424.804 341.724V281.529C424.804 274.615 419.252 268.216 409.852 263.045Z" fill="black" stroke="black" stroke-linecap="round" stroke-linejoin="round"/>
<path d="M347.995 312.703C390.41 312.703 424.795 298.746 424.795 281.529C424.795 264.312 390.41 250.355 347.995 250.355C305.58 250.355 271.195 264.312 271.195 281.529C271.195 298.746 305.58 312.703 347.995 312.703Z" fill="white" stroke="black" stroke-linecap="round" stroke-linejoin="round"/>
<path d="M333.783 272.697V283.838C333.783 287.023 340.144 289.603 347.996 289.603C355.847 289.603 362.208 287.023 362.208 283.838V272.697C362.208 269.512 355.847 266.932 347.996 266.932C340.144 266.932 333.783 269.512 333.783 272.697Z" fill="#B3FD34" stroke="black" stroke-linecap="round" stroke-linejoin="round"/>
<path d="M354.833 267.633L352.125 289.36C357.97 288.639 362.217 286.438 362.217 283.838V272.697C362.217 270.515 359.236 268.616 354.833 267.633Z" fill="black" stroke="black" stroke-linecap="round" stroke-linejoin="round"/>
<path d="M424.804 192.937C424.804 175.719 390.418 161.764 348.005 161.764C305.592 161.764 271.205 175.719 271.205 192.937" stroke="black" stroke-linecap="round" stroke-linejoin="round"/>
<path d="M271.195 187.638V247.833C271.195 265.051 305.582 279.007 347.995 279.007C390.408 279.007 424.795 265.051 424.795 247.833V187.638C424.795 170.42 390.408 156.465 347.995 156.465C305.582 156.465 271.195 170.42 271.195 187.638Z" fill="#00ED64"/>
<path d="M409.852 169.164V266.327C419.242 261.156 424.804 254.767 424.804 247.843V187.648C424.804 180.734 419.252 174.335 409.852 169.164Z" fill="black" stroke="black" stroke-linecap="round" stroke-linejoin="round"/>
<path d="M347.995 218.812C390.41 218.812 424.795 204.855 424.795 187.638C424.795 170.422 390.41 156.465 347.995 156.465C305.58 156.465 271.195 170.422 271.195 187.638C271.195 204.855 305.58 218.812 347.995 218.812Z" fill="white" stroke="black" stroke-linecap="round" stroke-linejoin="round"/>
<path d="M424.804 187.639V247.834C424.804 265.052 390.418 279.007 348.005 279.007C305.592 279.007 271.205 265.052 271.205 247.834V187.639" stroke="black" stroke-linecap="round" stroke-linejoin="round"/>
<path d="M333.783 178.816V189.957C333.783 193.142 340.144 195.723 347.996 195.723C355.847 195.723 362.208 193.142 362.208 189.957V178.816C362.208 175.632 355.847 173.051 347.996 173.051C340.144 173.051 333.783 175.632 333.783 178.816Z" fill="#B3FD34" stroke="black" stroke-linecap="round" stroke-linejoin="round"/>
<path d="M354.833 173.752L352.125 195.479C357.97 194.758 362.217 192.557 362.217 189.957V178.816C362.217 176.635 359.236 174.736 354.833 173.752Z" fill="black" stroke="black" stroke-linecap="round" stroke-linejoin="round"/>
<path d="M271.195 93.7576V153.953C271.195 171.171 305.582 185.126 347.995 185.126C390.408 185.126 424.795 171.171 424.795 153.953V93.7576C424.795 76.5396 390.408 62.584 347.995 62.584C305.582 62.584 271.195 76.5396 271.195 93.7576Z" fill="#00ED64"/>
<path d="M424.804 93.7576C424.804 76.5396 390.418 62.584 348.005 62.584C305.592 62.584 271.205 76.5396 271.205 93.7576" stroke="black" stroke-linecap="round" stroke-linejoin="round"/>
<path d="M424.804 93.7578V153.953C424.804 171.171 390.418 185.126 348.005 185.126C305.592 185.126 271.205 171.171 271.205 153.953V93.7578" stroke="black" stroke-linecap="round" stroke-linejoin="round"/>
<path d="M424.804 123.85C424.804 141.068 390.418 155.023 348.005 155.023C305.592 155.023 271.205 141.068 271.205 123.85" stroke="black" stroke-linecap="round" stroke-linejoin="round"/>
<path d="M424.804 217.742C424.804 234.96 390.418 248.916 348.005 248.916C305.592 248.916 271.205 234.96 271.205 217.742" stroke="black" stroke-linecap="round" stroke-linejoin="round"/>
<path d="M409.852 75.2734V172.437C419.242 167.265 424.804 160.877 424.804 153.952V93.7575C424.804 86.843 419.252 80.4447 409.852 75.2734Z" fill="black" stroke="black" stroke-linecap="round" stroke-linejoin="round"/>
<path d="M347.995 124.931C390.41 124.931 424.795 110.974 424.795 93.7576C424.795 76.5409 390.41 62.584 347.995 62.584C305.58 62.584 271.195 76.5409 271.195 93.7576C271.195 110.974 305.58 124.931 347.995 124.931Z" fill="white" stroke="black" stroke-linecap="round" stroke-linejoin="round"/>
<path d="M240.413 243.15C219.489 222.231 219.489 188.311 240.413 167.392L245.313 172.291L244.904 165.629C240.832 164.393 236.516 163.721 232.045 163.721C223.979 163.721 216.43 165.892 209.933 169.671C196.373 195.673 198.672 227.792 216.82 251.729H231.841L240.423 243.15H240.413Z" fill="black"/>
<path d="M449.236 138.927C470.16 159.846 470.16 193.765 449.236 214.684L444.336 209.786L445.904 235.087L471.212 236.655L465.845 231.289C495.945 201.196 495.945 152.415 465.845 122.322L449.236 138.927Z" fill="white" stroke="black" stroke-linecap="round" stroke-linejoin="round"/>
<path d="M246.764 220.05C225.84 199.131 225.84 165.212 246.764 144.293L251.664 149.191L250.096 123.89L224.788 122.322L230.155 127.688C200.055 157.781 200.055 206.562 230.155 236.655L246.764 220.05Z" fill="white" stroke="black" stroke-linecap="round" stroke-linejoin="round"/>
<path d="M495.984 415.086H432.919C431.305 415.086 429.997 416.394 429.997 418.008V418.193C429.997 419.806 431.305 421.114 432.919 421.114H495.984C497.598 421.114 498.906 419.806 498.906 418.193V418.008C498.906 416.394 497.598 415.086 495.984 415.086Z" fill="white" stroke="black" stroke-linecap="round" stroke-linejoin="round"/>
<path d="M458.567 385.968C465.039 385.968 470.286 383.84 470.286 381.215C470.286 378.591 465.039 376.463 458.567 376.463C452.095 376.463 446.849 378.591 446.849 381.215C446.849 383.84 452.095 385.968 458.567 385.968Z" fill="black" stroke="black" stroke-linecap="round" stroke-linejoin="round"/>
<path d="M473.793 298.367L530.087 406.856" stroke="black" stroke-linecap="round" stroke-linejoin="round"/>
<path d="M515.661 347.938H538.143L532.036 338.395H515.651C510.849 338.395 506.952 340.527 506.952 343.166C506.952 345.806 510.849 347.938 515.651 347.938H515.661Z" fill="black" stroke="black" stroke-linecap="round" stroke-linejoin="round"/>
<path d="M470.276 360.296C477.179 360.296 482.774 354.702 482.774 347.801C482.774 340.901 477.179 335.307 470.276 335.307C463.374 335.307 457.778 340.901 457.778 347.801C457.778 354.702 463.374 360.296 470.276 360.296Z" fill="white" stroke="black" stroke-linecap="round" stroke-linejoin="round"/>
<path d="M463.243 358.124C465.25 359.487 467.666 360.296 470.276 360.296C477.183 360.296 482.774 354.706 482.774 347.801C482.774 345.191 481.975 342.766 480.602 340.77C476.189 347.781 470.247 353.722 463.233 358.134L463.243 358.124Z" fill="black" stroke="black" stroke-linecap="round" stroke-linejoin="round"/>
<path d="M208.15 61.4729V76.8309L221.457 84.5147L234.763 76.8309V61.4729L221.457 53.7891L208.15 61.4729Z" fill="white" stroke="black" stroke-linecap="round" stroke-linejoin="round"/>
<path d="M234.764 76.8326V61.4746L221.457 69.1487V84.5164L234.764 76.8326Z" fill="black" stroke="black" stroke-linecap="round" stroke-linejoin="round"/>
<path d="M208.15 61.4746L221.457 69.1487" stroke="black" stroke-linecap="round" stroke-linejoin="round"/>
</g>
<defs>
<clipPath id="clip0_3298_73604">
<rect width="434" height="388" fill="white" transform="translate(131 40)"/>
</clipPath>
</defs>
</svg>
