<?xml version="1.0" standalone="no"?>
<!DOCTYPE svg PUBLIC "-//W3C//DTD SVG 20010904//EN"
 "http://www.w3.org/TR/2001/REC-SVG-20010904/DTD/svg10.dtd">
<svg version="1.0" xmlns="http://www.w3.org/2000/svg"
 width="1730.000000pt" height="1730.000000pt" viewBox="0 0 1730.000000 1730.000000"
 preserveAspectRatio="xMidYMid meet">
<metadata>
Created by potrace 1.14, written by Peter Selinger 2001-2017
</metadata>
<g transform="translate(0.000000,1730.000000) scale(0.100000,-0.100000)"
fill="#000000" stroke="none">
<path d="M6157 15004 c-1 -1 -54 -5 -117 -9 -63 -3 -124 -8 -135 -9 -11 -2
-51 -6 -90 -11 -38 -4 -78 -9 -89 -11 -10 -2 -44 -6 -75 -10 -31 -3 -65 -8
-76 -10 -11 -2 -40 -7 -65 -10 -25 -3 -52 -7 -61 -10 -9 -3 -34 -7 -55 -9
-115 -14 -779 -147 -1049 -210 -38 -9 -77 -18 -85 -20 -8 -2 -46 -11 -85 -20
-38 -9 -77 -18 -85 -20 -8 -1 -35 -8 -60 -15 -25 -7 -56 -14 -69 -17 -13 -2
-69 -15 -125 -29 -55 -15 -108 -27 -117 -29 -8 -2 -69 -17 -135 -35 -65 -17
-126 -33 -135 -35 -51 -11 -421 -109 -460 -121 l-47 -16 13 -56 c8 -31 39
-156 70 -277 67 -260 183 -722 189 -750 2 -11 29 -128 59 -260 72 -310 114
-503 141 -645 5 -24 21 -108 31 -160 10 -49 47 -255 50 -275 2 -11 10 -65 18
-120 9 -55 18 -120 22 -145 3 -25 8 -56 10 -70 4 -26 15 -112 20 -165 30 -288
28 -592 -4 -785 -21 -126 -73 -313 -92 -335 -5 -5 -9 -15 -9 -23 0 -20 -75
-127 -113 -162 -76 -69 -199 -111 -305 -105 -95 6 -115 11 -412 122 -199 75
-474 167 -546 183 -27 7 -58 14 -69 16 -11 3 -72 13 -135 24 -149 24 -522 22
-640 -4 -83 -18 -213 -57 -263 -80 -17 -8 -57 -26 -87 -39 -220 -98 -477 -309
-614 -505 -109 -156 -195 -354 -230 -532 -3 -14 -7 -34 -9 -45 -7 -30 -20
-125 -23 -170 -6 -81 -6 -332 1 -405 10 -120 53 -313 85 -385 5 -11 20 -47 34
-80 89 -219 270 -442 488 -603 187 -138 334 -210 543 -266 134 -36 474 -54
610 -32 189 30 460 93 642 150 170 52 329 96 498 135 22 5 92 9 155 8 128 -3
176 -18 243 -76 69 -61 141 -215 161 -346 4 -22 8 -47 11 -55 2 -8 6 -50 10
-92 3 -42 8 -87 10 -99 21 -109 21 -823 0 -1069 -9 -112 -18 -197 -21 -214 -2
-10 -6 -44 -9 -75 -3 -31 -8 -67 -10 -81 -7 -37 -13 -79 -20 -130 -3 -25 -11
-72 -16 -105 -6 -33 -12 -69 -14 -80 -9 -59 -16 -103 -21 -125 -5 -22 -13 -64
-30 -165 -8 -45 -90 -437 -113 -540 -11 -49 -22 -101 -24 -115 -3 -14 -15 -65
-26 -115 -12 -49 -35 -146 -51 -215 -16 -69 -49 -208 -74 -310 -40 -164 -100
-414 -125 -523 -7 -27 -6 -40 2 -43 21 -7 611 -153 646 -159 19 -3 37 -8 40
-10 6 -3 249 -61 301 -71 14 -3 52 -12 85 -21 33 -8 69 -17 80 -19 52 -10 68
-14 83 -18 9 -3 28 -7 42 -10 14 -3 36 -7 50 -10 61 -13 76 -17 95 -20 11 -3
65 -14 120 -26 55 -11 114 -23 130 -26 17 -3 62 -11 100 -19 39 -8 84 -17 100
-20 17 -2 41 -7 55 -10 25 -5 182 -32 230 -40 14 -2 66 -11 115 -19 50 -8 108
-17 130 -20 22 -3 60 -8 85 -11 25 -3 56 -8 70 -10 106 -21 451 -34 885 -35
408 0 504 6 720 45 129 24 258 81 318 141 20 21 49 63 64 93 25 51 27 66 27
176 -1 127 -6 173 -31 270 -8 33 -16 67 -18 75 -2 9 -33 119 -70 245 -37 127
-69 240 -71 252 -2 12 -9 34 -14 48 -23 59 -75 306 -88 415 -9 76 -8 321 1
404 48 436 297 836 687 1105 129 89 392 191 554 215 21 4 48 8 60 11 53 11
131 16 241 16 162 0 238 -8 381 -36 487 -98 835 -371 1064 -833 106 -216 154
-428 154 -682 0 -107 -17 -289 -30 -329 -3 -8 -7 -30 -10 -50 -6 -43 -41 -186
-54 -221 -4 -14 -23 -72 -40 -130 -32 -106 -40 -129 -123 -345 -86 -223 -108
-303 -112 -395 -9 -210 80 -347 285 -442 103 -48 275 -89 445 -105 149 -15
637 -7 730 11 11 2 54 7 95 11 41 4 84 9 95 11 11 2 40 7 65 10 25 3 56 7 70
9 79 13 98 16 125 20 17 2 55 8 85 14 30 6 71 13 90 16 39 6 339 65 410 80 14
3 36 8 50 10 14 3 48 10 75 16 28 6 61 13 74 15 14 3 28 7 31 9 4 2 20 6 36 9
119 22 717 166 1124 271 118 31 222 58 230 60 82 19 217 58 223 64 5 5 -8 75
-28 157 -20 82 -38 156 -40 164 -2 8 -46 184 -99 390 -91 361 -140 568 -206
866 -17 76 -33 148 -36 159 -2 11 -6 31 -9 45 -3 14 -7 36 -10 50 -3 14 -8 36
-11 50 -4 25 -25 126 -30 145 -1 6 -5 26 -8 45 -4 19 -9 46 -11 60 -5 25 -7
34 -25 130 -6 30 -13 73 -16 95 -3 22 -7 46 -10 53 -2 7 -11 59 -19 115 -8 56
-17 113 -20 127 -5 26 -6 36 -24 185 -19 146 -20 163 -28 269 -12 171 -7 402
11 526 2 14 7 50 11 80 14 113 54 254 97 350 77 169 210 264 383 273 89 5 172
-14 335 -76 553 -212 741 -263 1035 -285 133 -10 369 -3 425 13 15 4 37 9 95
20 63 12 215 69 335 127 69 33 127 63 130 67 3 3 45 32 93 65 201 134 373 335
475 556 47 102 66 154 98 280 23 94 27 116 44 255 10 89 10 363 0 435 -5 30
-11 74 -14 97 -24 192 -134 457 -250 608 -64 82 -83 103 -186 205 -120 121
-268 225 -425 300 -103 49 -268 105 -340 115 -22 4 -47 8 -55 10 -39 10 -166
19 -270 19 -271 0 -460 -39 -1035 -211 -354 -106 -529 -122 -654 -60 -133 66
-202 208 -246 502 -28 190 -37 627 -21 1035 7 189 9 224 21 320 3 25 7 68 10
95 3 28 8 61 10 75 2 14 7 45 10 70 5 40 38 248 51 325 3 17 7 44 10 60 2 17
7 41 9 55 8 37 14 68 25 130 17 89 18 96 61 300 22 107 42 202 43 210 1 8 6
29 9 45 4 17 9 39 11 50 2 11 18 81 36 155 17 74 33 145 36 157 2 12 20 88 40
170 20 81 37 155 39 163 2 8 20 83 40 165 20 83 38 158 40 168 2 10 6 26 9 35
3 9 7 28 10 42 2 14 14 65 25 114 12 49 18 93 14 97 -6 5 -611 160 -723 184
-8 2 -134 31 -280 65 -146 34 -274 64 -285 66 -11 2 -63 13 -115 25 -52 11
-108 23 -125 25 -16 3 -57 12 -90 19 -33 8 -121 26 -195 39 -74 14 -145 27
-157 30 -11 2 -43 8 -70 12 -26 3 -57 8 -68 10 -89 17 -136 25 -175 30 -55 8
-66 9 -160 23 -278 40 -534 55 -935 55 -310 0 -526 -10 -660 -30 -22 -3 -52
-7 -67 -9 -69 -9 -200 -47 -258 -74 -108 -50 -171 -122 -199 -228 -12 -43 -16
-193 -7 -248 6 -42 15 -86 21 -110 2 -11 9 -40 15 -63 6 -24 36 -130 67 -235
30 -106 59 -205 64 -222 62 -231 86 -325 83 -325 -2 0 0 -10 5 -23 5 -13 12
-48 16 -78 4 -30 8 -56 10 -59 14 -24 23 -377 11 -445 -3 -16 -8 -50 -11 -75
-34 -238 -126 -460 -278 -666 -28 -38 -105 -123 -171 -190 -166 -165 -296
-250 -531 -345 -87 -35 -268 -73 -405 -85 -304 -27 -658 32 -908 153 -390 187
-699 592 -803 1053 -27 117 -34 193 -34 350 0 311 58 548 274 1118 74 196 98
292 95 379 -6 122 -50 226 -130 307 -78 78 -326 172 -505 191 -31 3 -66 8 -78
10 -41 8 -417 25 -424 19z"/>
</g>
</svg>
