<svg width="1730" height="1272" viewBox="0 0 1730 1272" fill="none" xmlns="http://www.w3.org/2000/svg">
<path d="M603.333 1.33327C551.6 5.19993 472.8 20.2666 369.333 46.1333C336 54.5333 294.933 65.3333 294.267 65.9999C294 66.1333 298.4 83.7333 303.867 104.8C342.533 252.933 361.467 358 358.933 410C357.6 436.4 352.4 460.667 345.067 475.067C337.733 489.733 325.467 498.267 309.867 499.6C299.733 500.533 292.533 498.667 262.667 487.2C210.133 467.067 186.533 462 151.333 463.067C133.067 463.6 127.067 464.267 116 467.2C70.3998 479.467 30.2665 512.667 13.7332 552.267C4.39984 574.267 0.666504 594.8 0.666504 622.8C0.666504 645.2 2.93317 660.4 8.79984 678C17.9998 705.333 34.9332 728.933 58.5332 747.2C85.1998 767.867 107.867 776.933 140.267 780.133C168.267 782.933 194.4 778.8 244 763.867C260.933 758.8 280.667 753.333 288 751.867C324.667 744.267 341.2 756.267 348 795.733C353.2 825.467 353.867 894.933 349.333 937.333C343.467 992.133 329.733 1061.47 303.867 1166.53C298.4 1188.8 294.133 1207.2 294.267 1207.33C295.2 1208 390 1231.07 414.667 1236.53C468.133 1248.4 516.667 1257.33 555.333 1262.13C578.933 1265.07 660.133 1266.27 685.067 1264.13C723.733 1260.67 741.733 1253.47 749.2 1238.4C752.133 1232.4 752.667 1229.73 752.667 1219.2C752.667 1203.73 750.8 1194.53 740 1158.67C724.533 1107.2 721.067 1087.33 722.4 1058.8C724.133 1020.67 739.467 986.667 767.333 958.667C781.2 944.667 792.267 936.667 808.8 928.8C858.4 904.933 926.667 909.733 971.733 940.267C999.867 959.467 1023.73 994.133 1032.8 1029.6C1043.2 1070.53 1037.2 1111.87 1011.6 1176.93C999.467 1207.47 997.733 1217.87 1002.4 1233.47C1009.87 1258.67 1044.4 1272 1102.53 1272C1161.47 1272 1244.13 1256.8 1393.33 1218.4C1416.13 1212.53 1434.93 1207.47 1435.2 1207.2C1435.47 1206.93 1430.53 1186.8 1424.27 1162.4C1386 1014.67 1367.33 910 1370.67 862C1374.67 802.267 1389.73 775.867 1420.8 773.6C1431.2 772.933 1437.2 774.4 1465.33 785.333C1511.33 803.067 1535.07 809.067 1564 810.267C1595.33 811.6 1617.47 807.067 1644 794C1700.27 766.4 1729.07 717.6 1729.07 650C1729.07 604.533 1716.4 571.2 1688 541.467C1673.73 526.533 1659.33 516 1641.47 507.333C1623.87 498.8 1610.8 495.2 1589.73 493.067C1561.47 490.267 1534 494.533 1484.67 509.467C1447.6 520.8 1437.87 523.067 1424 523.2C1413.87 523.333 1410.93 522.8 1405.73 520.267C1390.4 512.667 1383.47 496.933 1379.2 460C1376.8 438.533 1377.07 365.333 1379.87 339.333C1385.73 283.2 1399.2 214.4 1424.8 110.267C1430.8 86.1333 1435.33 66.2666 1435.07 65.9999C1434.27 65.1999 1361.73 47.1999 1328 39.4666C1268.67 25.9999 1222.27 17.1999 1181.73 11.9999C1126.8 5.0666 1047.73 5.59993 1014.4 13.3333C987.067 19.7333 976.667 31.1999 976.667 54.7999C976.667 68.2666 978.933 78.3999 989.333 113.333C1004.27 163.6 1007.33 179.2 1007.33 206.133C1007.33 248.933 992.133 284.933 960.8 316C935.067 341.6 905.067 355.2 866.533 358.8C839.333 361.2 806.133 356.267 781.867 346C724.533 321.867 686.133 254.4 692.667 189.067C695.467 161.2 701.2 140.133 718.4 95.3333C729.467 66.5333 731.067 59.1999 728.8 47.0666C725.2 27.3333 715.333 17.4666 691.333 9.0666C672.4 2.53327 633.6 -0.9334 603.333 1.33327Z" fill="black"/>
</svg>
