<svg style="stroke:#000000" viewBox="0 -960 960 960" version="1.1" xmlns="http://www.w3.org/2000/svg"><path d="M 480,-300 Z" id="path8" /><path d="m 477.692,-675.433 q 12.21431,0 21.10716,-8.89284 8.89284,-8.89285 8.89284,-21.10716 0,-12.21431 -8.89284,-21.10716 -8.89285,-8.89284 -21.10716,-8.89284 -12.21431,0 -21.10716,8.89284 -8.89284,8.89285 -8.89284,21.10716 0,12.21431 8.89284,21.10716 8.89285,8.89284 21.10716,8.89284 z" id="path6" /><path d="m 702.5,-546.25 q 12.21431,0 21.10716,-8.89284 8.89284,-8.89285 8.89284,-21.10716 0,-12.21431 -8.89284,-21.10716 Q 714.71431,-606.25 702.5,-606.25 q -12.21431,0 -21.10716,8.89284 -8.89284,8.89285 -8.89284,21.10716 0,12.21431 8.89284,21.10716 8.89285,8.89284 21.10716,8.89284 z" id="path4-0" /><ellipse style="fill:none;stroke-width:40.0156;stroke-dasharray:none" id="path12" cx="486.18475" cy="479.11279" rx="339.98758" ry="339.99637" transform="matrix(0.99996972,-0.00778243,-0.0092068,-0.99995762,0,0)" /><ellipse style="stroke-width:41.7331;stroke-linecap:round;stroke-linejoin:round;stroke-dasharray:none" id="path15" cx="481.75754" cy="-482.87619" rx="39.13343" ry="39.133442" /><path style="fill:none;stroke-width:40;stroke-linecap:round;stroke-linejoin:round" d="m 307.539,-212.308 c 57.11872,-22.19974 114.23633,-44.39906 171.72446,-44.39906 57.48813,0 115.34226,22.19931 173.19754,44.39906" id="path18" transform="translate(3.32416,13.551527)" /><path style="stroke-width:40;stroke-linecap:round;stroke-linejoin:round" d="M 481.75892,-482.8762 277.692,-562.308" id="path3" /></svg>