<?xml version="1.0" standalone="no"?>
<!DOCTYPE svg PUBLIC "-//W3C//DTD SVG 20010904//EN"
 "http://www.w3.org/TR/2001/REC-SVG-20010904/DTD/svg10.dtd">
<svg version="1.0" xmlns="http://www.w3.org/2000/svg"
 width="700.000000pt" height="700.000000pt" viewBox="0 0 700.000000 700.000000"
 preserveAspectRatio="xMidYMid meet">
<metadata>
Created by potrace 1.14, written by Peter Selinger 2001-2017
</metadata>
<g transform="translate(0.000000,700.000000) scale(0.100000,-0.100000)"
fill="#000000" stroke="none">
<path d="M1947 5543 c-1 -1 -31 -2 -67 -4 -117 -4 -223 -52 -302 -137 -70 -75
-65 -63 -235 -552 -47 -135 -91 -263 -98 -285 -8 -22 -47 -137 -89 -255 -114
-328 -221 -636 -253 -730 l-29 -85 1 -1180 c1 -649 5 -1196 9 -1215 12 -52 34
-90 75 -133 75 -80 131 -94 366 -92 115 1 195 6 222 15 89 27 183 131 197 215
2 17 5 103 5 191 l1 161 1750 0 1750 0 0 -166 c0 -91 5 -182 10 -201 26 -94
119 -183 215 -207 22 -5 126 -9 230 -8 181 1 193 3 245 27 69 31 115 78 148
148 l26 55 2 1190 1 1190 -29 90 c-17 50 -63 185 -103 300 -40 116 -94 271
-120 345 -51 146 -118 340 -170 490 -19 52 -70 200 -114 328 -44 129 -92 255
-107 282 -26 49 -119 150 -137 150 -6 0 -18 6 -26 13 -23 19 -99 46 -151 53
-37 5 -3218 12 -3223 7z m3067 -627 c8 -22 35 -99 60 -171 24 -71 88 -255 141
-408 53 -153 95 -280 93 -283 -3 -2 -819 -3 -1814 -2 l-1810 3 49 140 c26 77
65 190 87 250 21 61 66 191 101 290 34 99 66 190 70 201 l8 22 1499 -1 1500 0
16 -41z m526 -1536 c1 -66 1 -320 1 -565 0 -245 0 -519 -1 -609 l0 -163 -2041
1 -2041 1 1 695 c0 382 0 710 1 728 l0 32 2040 0 2040 0 0 -120z"/>
<path d="M2085 3194 c-336 -81 -446 -495 -197 -740 112 -109 299 -148 447 -93
255 94 363 387 230 624 -95 170 -289 254 -480 209z"/>
<path d="M4690 3189 c-107 -29 -213 -115 -264 -216 -89 -176 -58 -372 80 -510
195 -195 514 -163 669 67 87 130 97 297 26 439 -36 70 -110 148 -176 183 -107
57 -218 69 -335 37z"/>
</g>
</svg>
